<svg xmlns="http://www.w3.org/2000/svg" viewBox="818 1163 120.15 62"><defs><style>.a{fill:#fff}</style></defs><path class="a" d="M841.01 1170.434c-1.5 3.073-4.422 4.8-6.521 3.9s-2.548-4.122-1.049-7.2 4.422-4.8 6.521-3.9 2.623 4.122 1.049 7.2"/><path class="a" d="M847.306 1186.098c.375-.6.75-1.274 1.124-1.874.375-.675 1.2-.375.45 1.2a15.094 15.094 0 0 1-1.124 2.024c-.45.675.075.974.9-.15 1.2-1.5 2.324-3 2.848-3.823.6-.9 1.424-.525.675.45a88.04 88.04 0 0 0-1.949 2.7c-.6.75-.15 1.274.6.3.824-1.124 1.949-2.4 2.623-3.373.75-.974 1.274-.3.75.375-1.049 1.349-2.024 2.623-2.623 3.523-.525.75-.075 1.124.525.45.675-.825 1.5-1.949 2.1-2.548.45-.525.974-.15.525.375a13.025 13.025 0 0 1-.824 1.124c-1.574 2.024-1.874 2.324-1.649 2.548.3.225.974-.45 1.949-1.574.6-.75 1.2-.45.525.525a5.66 5.66 0 0 1-.832 1.048c-.824.9-8.994 10.868-17.314 16.565-32.305-15.89-15.965-37.252.075-28.557 6.371-10.044 20.762-5.771 8.845 5.247-4.347 3.9-9.444 4.572-15.665 3.373-.75-.15-.974.675.6 1.124a9.993 9.993 0 0 0 2.1.45c.75.15.6.675-.675.675-1.724-.075-3.673-.15-4.572-.225-.974 0-.974.824-.075.824 1.349.075 2.4.15 3.223.15.9 0 .974.75-.15.675-1.274-.075-2.848-.075-3.973-.075-.9 0-.824.824-.15.824 1.574.075 3.073.075 4.048.15.824.075.824.675 0 .675-.974 0-2.324-.075-3.073 0-.6 0-.675.675 0 .675.3 0 .75.075 1.274.075 2.4.075 2.773 0 2.773.375s-1.349.45-2.7.525c-.974 0-1.124.675.075.75 9.219.525 15.066-1.8 18.738-7.57M863.271 1170.885c-.225.9-.225 1.124-.45 2.024h-.6c.15-.75.225-.9.45-1.8h-1.8c-.15.675-.225.9-.375 1.724h-.673l.15-.675.225-1.124c.225-.974.225-1.124.45-1.949h.675l-.225.974-.075.45h1.724l.15-.525.15-.9h.6l-.15.824-.225.974M864.396 1171.258c.075-.15.075-.3.225-.45a.682.682 0 0 1 .6-.3c.45 0 .6.225.6.525v.225h-1.424m1.649 1.049a1.422 1.422 0 0 1-.9.3c-.525 0-.824-.225-.824-.675v-.225h1.874c0-.15.075-.3.075-.45a.869.869 0 0 0-.3-.75 1.266 1.266 0 0 0-.75-.225 1.594 1.594 0 0 0-1.5 1.724 1.048 1.048 0 0 0 .9 1.124h.375a2 2 0 0 0 .9-.225zM867.618 1171.109c-.225.9-.225 1.049-.375 1.8h-.6l.225-1.124.3-1.2a13.835 13.835 0 0 0 .3-1.724l.6-.075-.3 1.424-.15.9M869.043 1170.884a.9.9 0 0 1 .6-.3c.3 0 .6.15.6.675a1.3 1.3 0 0 1-1.424 1.274h-.225l.45-1.649m.15-.675l-.6.075c-.075.3-.075.45-.15.9s-.225.9-.3 1.349l-.075.45-.3 1.2h.525a11.6 11.6 0 0 0 .225-1.274h.3a2.072 2.072 0 0 0 1.649-.675 1.791 1.791 0 0 0 .375-1.049.966.966 0 0 0-.974-1.049 2.2 2.2 0 0 0-.75.225zM872.641 1168.935h-.6l-.075.075-.075.525v.075l.525-.075.075-.075.15-.525m-.675 3.223l.075-.525c.15-.75.225-.9.3-1.349l-.6.075h-.075c-.075.375-.075.45-.15.9l-.075.3c-.15.675-.15.824-.3 1.424h.525zM874.964 1172.909l-.6.075.225-.974.15-.6c0-.15.075-.225.075-.375a.432.432 0 0 0-.45-.45.95.95 0 0 0-.675.3c-.225.9-.225 1.2-.45 2.024h-.524l.225-.9.075-.375a8.449 8.449 0 0 0 .225-1.349c.225 0 .3-.075.525-.075l-.075.3a1.422 1.422 0 0 1 .9-.3.7.7 0 0 1 .75.675 5.061 5.061 0 0 1-.15 1.049l-.075.375-.15.6M878.037 1170.584l-.373 1.725c-.15.075-.225.15-.375.225h-.225a.6.6 0 0 1-.6-.675 1.607 1.607 0 0 1 .3-.9 1.519 1.519 0 0 1 1.2-.45l.075.075m.675-.375h-.75a1.752 1.752 0 0 0-1.8.824 1.875 1.875 0 0 0-.225.974.966.966 0 0 0 .974 1.049 1.775 1.775 0 0 0 .75-.225l-.075.3a.9.9 0 0 1-.9.824.848.848 0 0 1-.824-.375h-.075l-.225.3v.075a1.035 1.035 0 0 0 .3.225 2.663 2.663 0 0 0 .75.15 1.4 1.4 0 0 0 1.049-.375 3.653 3.653 0 0 0 .45-1.2l.15-.675c.225-.974.3-1.2.45-1.874zM881.785 1170.134l.075-.45h.15a1.479 1.479 0 0 1 .675.075.5.5 0 0 1 .3.525.768.768 0 0 1-.45.75 1.758 1.758 0 0 1-.9.15h-.15l.3-1.049m-.45 2.1l.15-.675h.3a1.862 1.862 0 0 0 1.649-.525 1.572 1.572 0 0 0 .3-.824.967.967 0 0 0-.375-.824 2.071 2.071 0 0 0-1.049-.15h-.824c-.15.75-.225.974-.45 2.024l-.15.6-.225 1.049h.525v-.076zM884.259 1171.258c.075-.15.075-.3.225-.45a.682.682 0 0 1 .6-.3c.45 0 .525.225.525.525v.225h-1.349m1.649 1.049a1.422 1.422 0 0 1-.9.3c-.525 0-.824-.225-.824-.675v-.225h1.874c0-.15.075-.3.075-.45a.869.869 0 0 0-.3-.75 1.266 1.266 0 0 0-.75-.225 1.594 1.594 0 0 0-1.5 1.724 1.048 1.048 0 0 0 .9 1.124h.375a2 2 0 0 0 .9-.225zM888.531 1171.633c-.075.45-.3 1.049-.9 1.049-.3 0-.525-.15-.525-.6 0-.225.075-1.5.974-1.5.225 0 .525.075.525.6 0 .15-.075.3-.075.45m.525.15a1.275 1.275 0 0 0 .075-.525 1.006 1.006 0 0 0-1.123-1.048c-1.124 0-1.5 1.124-1.5 1.8 0 .75.375 1.049 1.124 1.049a1.456 1.456 0 0 0 1.424-1.275zM890.554 1170.884a.9.9 0 0 1 .6-.3c.3 0 .6.15.6.675a1.35 1.35 0 0 1-1.424 1.275h-.225l.45-1.649m.075-.675l-.6.075h-.075c-.075.3-.075.45-.15.9s-.225.9-.3 1.349l-.075.45-.3 1.2h.525a11.6 11.6 0 0 0 .225-1.274h.3a2.072 2.072 0 0 0 1.649-.675 1.791 1.791 0 0 0 .375-1.049.966.966 0 0 0-.974-1.052 2.2 2.2 0 0 0-.75.225zM893.627 1171.109c-.225.9-.225 1.049-.375 1.8h-.6l.225-1.124.3-1.2a13.835 13.835 0 0 0 .3-1.724l.6-.075-.3 1.424-.15.9M894.827 1171.258c.075-.15.075-.3.225-.45a.731.731 0 0 1 .675-.3c.45 0 .525.225.525.525v.225h-1.424m1.649 1.049a1.422 1.422 0 0 1-.9.3c-.525 0-.824-.225-.824-.675v-.225h1.874c0-.15.075-.3.075-.45a.869.869 0 0 0-.3-.75 1.266 1.266 0 0 0-.75-.225 1.594 1.594 0 0 0-1.5 1.724 1.048 1.048 0 0 0 .9 1.124h.375a2 2 0 0 0 .9-.225zM897.601 1172.908l-.075.075h-.525l-.075-.075.15-.525.6-.075.075.075-.15.525M902.771 1172.758a2.008 2.008 0 0 1-.974.225 1.453 1.453 0 0 1-1.574-1.574 2.231 2.231 0 0 1 2.174-2.324 1.434 1.434 0 0 1 1.049.3v.075l-.15.45h-.073l-.15-.15a1.008 1.008 0 0 0-.675-.15 1.738 1.738 0 0 0-1.574 1.8 1.061 1.061 0 0 0 1.124 1.124 1.579 1.579 0 0 0 .974-.375l-.15.6M905.696 1172.91l-.6.075.15-.525.15-.525c.075-.225.075-.45.15-.675v-.225c0-.225-.15-.375-.45-.375h-.224a1.208 1.208 0 0 0-.525.3l-.225.974-.225 1.124h-.525l.45-1.874a12.21 12.21 0 0 0 .3-1.349 6.493 6.493 0 0 1 .15-.75h.075l.6-.075v.075c-.15.6-.225.824-.375 1.649a1.607 1.607 0 0 1 .9-.3c.3 0 .75.075.75.675a2.582 2.582 0 0 1-.075.675l-.15.675-.3.45M908.395 1172.309c-.075.075-.15.075-.15.15a1.065 1.065 0 0 1-.45.15.606.606 0 0 1-.6-.675 1.514 1.514 0 0 1 .6-1.124 1.363 1.363 0 0 1 .824-.225h.225l-.449 1.724m1.049-2.024l-.75-.075a1.847 1.847 0 0 0-1.649.6 2.11 2.11 0 0 0-.45 1.124.966.966 0 0 0 .974 1.049 1 1 0 0 0 .75-.3v.226h.525l.075-.075c.075-.6.15-.824.3-1.649zM911.992 1172.909l-.6.075.225-.974.15-.6c0-.15.075-.225.075-.375a.432.432 0 0 0-.45-.45.95.95 0 0 0-.675.3c-.225.9-.225 1.2-.45 2.024h-.524l.225-.9.075-.375a8.449 8.449 0 0 0 .225-1.349c.225 0 .3-.075.525-.075l-.075.3a1.422 1.422 0 0 1 .9-.3.7.7 0 0 1 .75.675 5.061 5.061 0 0 1-.15 1.049l-.075.375-.15.6M915.139 1170.584l-.375 1.724c-.15.075-.225.15-.375.225h-.225a.6.6 0 0 1-.6-.675 1.607 1.607 0 0 1 .3-.9 1.519 1.519 0 0 1 1.2-.45l.075.075m.6-.375h-.75a1.913 1.913 0 0 0-1.874.824 1.875 1.875 0 0 0-.225.974.966.966 0 0 0 .974 1.049 1.775 1.775 0 0 0 .75-.225l-.075.3a.9.9 0 0 1-.9.824.848.848 0 0 1-.824-.375h-.075l-.225.3v.075a1.035 1.035 0 0 0 .3.225 2.7 2.7 0 0 0 .824.15 1.4 1.4 0 0 0 1.049-.375 3.653 3.653 0 0 0 .45-1.2l.15-.675a16.077 16.077 0 0 0 .45-1.874zM916.564 1172.908l-.6.075a7.96 7.96 0 0 0 .3-1.424l.075-.3c.075-.45.075-.525.15-.9l.6-.075c-.15.525-.15.675-.3 1.349l-.15.525-.075.75m.824-3.448l-.6.15v-.075l.075-.525.075-.075.525-.075.075.075zM919.787 1172.909l-.6.075.225-.974.15-.6c0-.15.075-.225.075-.375a.432.432 0 0 0-.45-.45.95.95 0 0 0-.675.3c-.225.9-.225 1.2-.45 2.024h-.524l.225-.9.075-.375a8.447 8.447 0 0 0 .225-1.349c.225 0 .3-.075.525-.075l-.075.3a1.422 1.422 0 0 1 .9-.3.7.7 0 0 1 .75.675 5.061 5.061 0 0 1-.15 1.049l-.075.375-.15.6M922.859 1170.584l-.375 1.724c-.15.075-.225.15-.375.225h-.225a.6.6 0 0 1-.6-.675 1.607 1.607 0 0 1 .3-.9 1.519 1.519 0 0 1 1.2-.45l.075.075m.675-.375h-.75a1.913 1.913 0 0 0-1.874.824 1.875 1.875 0 0 0-.225.974.966.966 0 0 0 .974 1.049 1.775 1.775 0 0 0 .75-.225l-.075.3a.9.9 0 0 1-.9.824.848.848 0 0 1-.824-.375h-.075l-.225.3v.075a1.035 1.035 0 0 0 .3.225 2.7 2.7 0 0 0 .824.15 1.4 1.4 0 0 0 1.049-.375 3.653 3.653 0 0 0 .45-1.2l.15-.675c.225-.974.3-1.2.45-1.874zM927.507 1172.907h-2.174l.3-1.124.3-1.2.3-1.424h.6l-.3 1.274-.225.974-.225.974h1.574l-.15.525M928.706 1172.908l-.6.075a7.96 7.96 0 0 0 .3-1.424l.075-.3c.075-.45.075-.525.15-.9l.6-.075c-.15.525-.15.675-.3 1.349l-.075.525-.15.75m.75-3.448l-.6.15v-.075l.075-.525.075-.075.525-.075.075.075zM931.254 1171.933a2.464 2.464 0 0 0-.225.45 3.259 3.259 0 0 1-.3.525h-.75l-.075-1.049-.075-.6-.149-1.05h.6l.075.824.075.675.075.824.75-1.424a10.007 10.007 0 0 0 .45-.9h.6c-.075.15-.45.75-.525.9l-.525.824M932.904 1171.258c.075-.15.075-.3.225-.45a.682.682 0 0 1 .6-.3c.45 0 .525.225.525.525v.225h-1.35m1.574 1.049a1.607 1.607 0 0 1-.9.3c-.525 0-.824-.225-.824-.675v-.225h1.874c0-.15.075-.3.075-.45a.869.869 0 0 0-.3-.75 1.266 1.266 0 0 0-.75-.225 1.594 1.594 0 0 0-1.5 1.724 1.048 1.048 0 0 0 .9 1.124h.375a2 2 0 0 0 .9-.225zM937.176 1170.809a1.119 1.119 0 0 0-.75-.225c-.3 0-.525.15-.525.375s.225.3.45.45l.3.15a.792.792 0 0 1 .45.675c0 .45-.375.9-1.124.9a1.346 1.346 0 0 1-.974-.3v-.075l.15-.375h.075a1 1 0 0 0 .75.3c.375 0 .6-.225.6-.45s-.15-.3-.45-.45l-.15-.075c-.225-.15-.6-.3-.6-.675 0-.225.15-.9 1.124-.9a1.334 1.334 0 0 1 .824.225v.075l-.15.375M938.076 1172.908l-.075.075h-.6v-.075l.075-.525h.075l.6-.075v.075l-.075.525M882.234 1180.779c.15-.6.075-.9-.3-.9-.45 0-.6.3-.9 1.874s-.375 1.874.075 1.874.6-.3.824-1.424h2.1a3.7 3.7 0 0 1-1.049 2.174 3.146 3.146 0 0 1-2.174.675c-2.473 0-2.473-1.574-2.1-3.373s.974-3.3 3.448-3.3c2.1 0 2.473.75 2.024 2.7h-2.1l.15-.3M886.957 1181.679c.3-1.5.525-1.874.9-1.874s.45.375.075 1.874c-.3 1.5-.525 1.874-.9 1.874s-.375-.375-.075-1.874m1.2-3.3c-2.473 0-3.073 1.574-3.448 3.3-.375 1.8-.45 3.373 2.1 3.373 2.473 0 3.073-1.574 3.523-3.373.298-1.726.373-3.3-2.176-3.3zM897.605 1180.703c.075-.45 0-.6-.3-.6s-.525.225-.6.6l-.9 4.2h-2.249l.9-4.2c.075-.45 0-.6-.3-.6s-.525.225-.6.6l-.9 4.2h-2.251l1.349-6.371h2.174l-.15.75a2.274 2.274 0 0 1 1.874-.9 1.283 1.283 0 0 1 1.349.9 2.274 2.274 0 0 1 1.874-.9c.824 0 1.424.45 1.2 1.574l-1.049 4.872h-2.249l.824-4.122M907.274 1180.703c.075-.45 0-.6-.3-.6s-.525.225-.6.6l-.9 4.2h-2.249l.9-4.2c.075-.45 0-.6-.3-.6s-.525.225-.6.6l-.9 4.2h-2.251l1.349-6.371h2.174l-.15.75a2.274 2.274 0 0 1 1.874-.9 1.283 1.283 0 0 1 1.349.9 2.274 2.274 0 0 1 1.874-.9c.824 0 1.424.45 1.2 1.574l-1.049 4.872h-2.249l.824-4.122M912.965 1184.151a2.376 2.376 0 0 1-1.874.9c-.824 0-1.424-.45-1.2-1.574l1.049-4.872h2.249l-.9 4.2c-.075.45 0 .6.3.6s.525-.225.6-.6l.9-4.2h2.249l-1.349 6.371h-2.174l.15-.825M920.012 1180.703c.075-.45 0-.6-.3-.6s-.525.225-.6.6l-.9 4.2h-2.248l1.349-6.371h2.174l-.15.75a2.274 2.274 0 0 1 1.874-.9c.824 0 1.424.45 1.2 1.574l-1.049 4.872h-2.249l.9-4.122M923.759 1178.53h2.251l-1.349 6.371h-2.251l1.349-6.371m.45-2.1h2.249l-.375 1.649h-2.249zM927.806 1176.655h2.249l-.375 1.874h.824l-.3 1.5h-.824l-.6 2.848c-.075.375-.075.6.3.6h.375l-.3 1.5c-.225 0-.824.075-1.124.075-1.274 0-1.949-.075-1.649-1.5l.75-3.448h-.675l.3-1.5h.675l.374-1.949M930.805 1178.529h2.324l-.225 3.823 1.349-3.823h2.252l-3 6.3c-.75 1.5-1.124 2.1-2.848 2.1-.525 0-.824-.075-1.049-.075l.3-1.5h.6a.634.634 0 0 0 .45-.15 1.638 1.638 0 0 0 .225-.375l-.375-6.3M830.442 1211.134l.15-.45h.15a2.089 2.089 0 0 1 .75.075.44.44 0 0 1 .3.45 1.017 1.017 0 0 1-.525.824 1.9 1.9 0 0 1-.9.15h-.149l.225-1.049m-.675 2.473l.15-.6h.3a2.918 2.918 0 0 0 2.473-.75 1.791 1.791 0 0 0 .375-1.049 1.237 1.237 0 0 0-.675-1.124 4.416 4.416 0 0 0-1.574-.15h-1.35l-.075.075c-.225.974-.3 1.274-.675 2.548l-.225.75-.375 1.274.075.075h1.274l.075-.075zM840.561 1210.609v1.874h-1.123l1.124-1.874m1.049-.75h-1.65l-.075.075c-.375.675-.6.974-.974 1.574l-.9 1.424a8.618 8.618 0 0 1-.974 1.5v.075h1.2l.075-.075.375-.75.225-.45h1.574v1.274l.075.075h1.276l.075-.075a32.256 32.256 0 0 0-.3-4.647zM849.78 1211.133l.15-.375h.225c.45 0 .9 0 .9.525a.672.672 0 0 1-.525.675 3.074 3.074 0 0 1-.824.075h-.15l.225-.9m-.974-1.2c-.225.974-.3 1.274-.6 2.4l-.225.824-.375 1.349.075.075h1.274l.075-.075a8.972 8.972 0 0 1 .45-1.8h.375l.45 1.124.225.675.075.075 1.274-.075.075-.075-.375-.824-.525-1.124a2 2 0 0 0 1.051-.523 1.579 1.579 0 0 0 .375-.974.979.979 0 0 0-.45-.9 3.2 3.2 0 0 0-1.649-.225zM859.449 1214.506l-.075.075H858.1l-.075-.075.3-.9.375-1.349.375-1.5h-1.35v-.075l.225-.75h2.623l1.274-.075.075.075-.225.75-.075.075h-1.2l-.3 1.124-.375 1.349-.3 1.274M870.692 1214.506l-1.049.075h-.075l-.375-.75-1.2-2.4-.45 2.1-.225 1.049h-1.124l-.075-.075.45-1.5.3-1.2c.225-.974.3-1.2.45-1.874l.075-.075h1.2l.375.824.525.974c.375.675.375.75.6 1.124l.45-1.724.3-1.2h1.124l.075.075-.45 1.8-.225.9-.675 1.874M880.361 1214.506l-2.024.075h-1.424v-.075l.375-1.349.3-1.049c.3-1.049.3-1.274.525-2.174l.075-.075h3.225l.075.075-.225.75-.075.075h-1.875l-.3 1.049h1.8v.075l-.225.75h-1.875l-.15.45-.225.75h2.1l.075.075-.15.6M888.606 1211.133l.15-.375h.225c.45 0 .9 0 .9.525a.672.672 0 0 1-.525.675 3.074 3.074 0 0 1-.824.075h-.15l.225-.9m-.974-1.2c-.225.974-.3 1.274-.6 2.4l-.225.824-.375 1.349.075.075h1.274l.075-.075a8.971 8.971 0 0 1 .45-1.8h.375l.45 1.124.225.675.075.075 1.274-.075v-.075l-.375-.824-.525-1.124a2 2 0 0 0 1.049-.525 1.579 1.579 0 0 0 .375-.974.979.979 0 0 0-.45-.9 3.2 3.2 0 0 0-1.648-.224zM896.176 1214.206l.225-.824h.075a2.05 2.05 0 0 0 .375.3 1.7 1.7 0 0 0 .9.225c.525 0 .974-.225.974-.6 0-.3-.3-.525-.675-.675l-.225-.15c-.375-.225-.974-.45-.974-1.124a1.344 1.344 0 0 1 .375-.974 2.423 2.423 0 0 1 1.65-.525 2.928 2.928 0 0 1 1.574.375v.075l-.3.824h-.074l-.225-.225a1.6 1.6 0 0 0-.9-.225c-.45 0-.824.225-.824.525s.225.45.75.675l.15.075c.375.225.974.525.974 1.2 0 .824-.675 1.574-2.249 1.574a5.786 5.786 0 0 1-1.124-.15 2.377 2.377 0 0 0-.45-.375M910.792 1212.108a9.985 9.985 0 0 0-.375 1.424c-.075.3-.15.675-.225.974l-.075.075h-1.272v-.075l.525-2.024h-1.949l-.525 2.024-.075.075h-1.276v-.075l.225-.824.375-1.424c.225-.9.3-1.2.6-2.324l.075-.075h1.274l.075.075-.3 1.049-.225.75h1.949l.15-.6.225-1.049.075-.075h1.349l.075.075-.3 1.049-.375.974M917.762 1214.506l-1.349.075v-.075l.225-.9.375-1.424a13.786 13.786 0 0 0 .525-2.249l.075-.075h1.349v.075c-.3 1.124-.375 1.424-.75 2.623l-.225.9-.225 1.049M926.158 1211.134l.15-.45h.225a2.089 2.089 0 0 1 .75.075.555.555 0 0 1 .3.45 1.017 1.017 0 0 1-.525.824 1.9 1.9 0 0 1-.9.15h-.15l.15-1.049m-.675 2.473l.15-.6h.3a2.918 2.918 0 0 0 2.473-.75 1.791 1.791 0 0 0 .375-1.049 1.237 1.237 0 0 0-.675-1.124 4.416 4.416 0 0 0-1.574-.15h-1.349l-.075.075c-.225.974-.3 1.274-.675 2.548l-.225.75-.375 1.274.075.075h1.274l.075-.075zM868.293 1192.02h-4.422l7.42-9.819-3 9.819m.45-14.541c-1.274 1.649-12.817 17.614-25.934 29.007h9.969l3.448-4.5 4.947-6.521h6l-3.448 11.018h7.5c2.848-12.892 3.673-16.565 6.671-29.007zM883.134 1197.867a4.592 4.592 0 0 0 .15-2.4.912.912 0 0 0-.974-.675c-1.124 0-1.724.974-2.548 4.647s-.675 4.647.525 4.647c.9 0 1.574-.6 2.024-2.473l.225-.974h4.572c-.525 2.324-1.2 3.973-2.473 5.1a7.465 7.465 0 0 1-5.022 1.574c-3.9 0-6.3-1.2-4.947-7.645 1.574-7.121 4.8-8.17 8.62-8.17 4.5 0 5.247 2.548 4.422 6.3h-4.572M889.43 1192.02h1.724l.974-4.422h5.1l-.974 4.422h2.024l-.75 3.373h-2.024l-1.574 7.121c-.225.824.15 1.2.974 1.2h.825l-.75 3.3c-.974.075-1.949.15-2.773.15-3.073 0-4.2-.525-3.523-3.823l1.724-7.945h-1.724l.75-3.373M899.774 1192.023h5.1l-3.223 14.988h-5.1l3.223-14.991m1.049-4.8h5.1l-.824 3.748h-5.1zM909.593 1199.516c.825-3.823 1.274-4.647 2.4-4.647s1.2.9.375 4.647-1.274 4.647-2.4 4.647-1.2-.9-.375-4.647m7.945 0c.974-4.347 1.2-7.87-4.8-7.87-5.771 0-7.345 3.9-8.17 7.87-.974 4.347-1.2 7.87 4.8 7.87 5.696 0 7.27-3.897 8.17-7.87zM920.386 1192.021h4.947l-.375 1.8h.075a4.739 4.739 0 0 1 4.2-2.249c2.249 0 3.823.824 3.073 4.047l-2.473 11.318h-5.1l2.174-9.894c.3-1.274.075-1.8-.825-1.8s-1.349.525-1.649 1.8l-2.174 9.894h-5.1l3.223-14.916M932.38 1207.013a1.5 1.5 0 0 1-1.5-1.5 1.5 1.5 0 1 1 3 0 1.5 1.5 0 0 1-1.5 1.5m0-2.848a1.349 1.349 0 1 0 1.349 1.349 1.344 1.344 0 0 0-1.349-1.351zm-.075.375a.812.812 0 0 1 .45.075.466.466 0 0 1 .3.45.484.484 0 0 1-.375.45c.15.075.225.075.225.375.075.225.075.45.15.6h-.375a.812.812 0 0 1-.075-.45c-.075-.375-.075-.375-.375-.45h-.075v.824h-.375v-1.951h.525zm-.225.75h.225c.15 0 .375 0 .375-.225 0-.075 0-.15-.15-.225h-.45v.45zM830.517 1219.303c.3 1.124.375 1.424 1.049 3.673v.075h-.9l-.225-.974h-1.2l-.225.974h-.823c.75-2.249.974-2.773 1.2-3.673a5.672 5.672 0 0 1 1.124-.075m-.3 2.1l-.225-.824-.15-.675-.15.6-.3.9zM835.839 1219.303v.9a4.274 4.274 0 0 0 .075.974c0 .6.075 1.2.075 1.8h-.9v-3.074l-.3 1.124-.225.75-.3 1.124h-.75l-.525-1.2-.225-.75-.225-.9v3h-.748c.15-1.724.15-2.1.225-3.673h1.275l.3 1.049.15.6.225.974.225-.9.225-.75.225-.824a2.156 2.156 0 0 1 1.2-.225M839.061 1222.378v.675h-2.4v-1.575a12.356 12.356 0 0 0-.075-2.1h2.324v.6h-1.348v.824h1.274v.6h-1.2v.9a8.606 8.606 0 0 0 1.424.075M840.336 1221.627a9.071 9.071 0 0 0 .075 1.424h-.9v-1.2a20.594 20.594 0 0 0-.075-2.548h1.049a2.577 2.577 0 0 1 1.2.15 1.019 1.019 0 0 1 .525.974.928.928 0 0 1-.75.974 5.439 5.439 0 0 1 .375.675 9.451 9.451 0 0 0 .675.974v.075h-1.05c-.375-.675-.45-.824-.75-1.424l-.375-.075m0-.675a1.288 1.288 0 0 0 .6-.075.449.449 0 0 0 .225-.45c0-.45-.375-.45-.6-.45h-.224zM843.708 1219.303v3.673h-.974v-1.5a14.06 14.06 0 0 0-.075-2.173h1.049M847.006 1222.152v.75a2.152 2.152 0 0 1-.9.15 1.912 1.912 0 0 1 0-3.823 2.659 2.659 0 0 1 .974.225l-.075.75h-.072a1.472 1.472 0 0 0-.75-.225c-.824 0-1.049.825-1.049 1.274a1.069 1.069 0 0 0 1.049 1.2 3.246 3.246 0 0 0 .824-.3M849.405 1219.303c.3 1.124.375 1.424 1.049 3.673v.075h-.9l-.225-.974h-1.124l-.225.974h-.824c.75-2.249.974-2.773 1.2-3.673a4.609 4.609 0 0 1 1.049-.075m-.3 2.1l-.225-.824-.15-.675-.15.6-.3.9zM851.205 1219.079a4.42 4.42 0 0 1-.3.6c-.075.225-.225.45-.3.675h-.6a11.557 11.557 0 0 0 .375-1.274h.824M853.079 1220.804a1.638 1.638 0 0 1 .375.225.955.955 0 0 1 .375.824 1.2 1.2 0 0 1-.6 1.049 2.228 2.228 0 0 1-.9.15 2.006 2.006 0 0 1-.824-.15.262.262 0 0 1-.15-.075v-.823h.075a1.267 1.267 0 0 0 .9.3c.45 0 .6-.225.6-.45 0-.3-.3-.375-.675-.6l-.15-.075a1.151 1.151 0 0 1-.824-1.049c0-.6.375-1.124 1.349-1.124a1.546 1.546 0 0 1 .974.225l-.075.675h-.075a1.364 1.364 0 0 0-.824-.3c-.375 0-.525.225-.525.375 0 .225.225.3.675.525l.3.3M856.825 1219.303a2.732 2.732 0 0 1 1.124.15 1.087 1.087 0 0 1 .525.974 1.2 1.2 0 0 1-.3.824 1.975 1.975 0 0 1-1.574.45v1.274h-.9v-3.672h1.124m-.225 1.8a1.663 1.663 0 0 0 .675-.075.555.555 0 0 0 .3-.525c0-.3-.15-.525-.6-.525h-.373zM862.147 1221.178a1.922 1.922 0 0 1-.6 1.574 2.02 2.02 0 0 1-1.124.375 1.724 1.724 0 0 1-1.2-.45 1.854 1.854 0 0 1-.525-1.5 1.276 1.276 0 0 1 .075-.525 1.713 1.713 0 0 1 .824-1.2 2.075 2.075 0 0 1 .974-.225 1.382 1.382 0 0 1 .974.3.585.585 0 0 1 .3.3 3.831 3.831 0 0 1 .3 1.349m-1.8-1.274a.815.815 0 0 0-.375.075c-.225.15-.375.45-.375 1.124 0 .45.075 1.349.75 1.349.6 0 .75-.6.75-1.349a1.463 1.463 0 0 0-.075-.525 1.065 1.065 0 0 0-.15-.45.68.68 0 0 0-.522-.222zM864.172 1223.051h-1.124c-.075-.225-.075-.45-.15-.675-.15-.675-.525-1.8-.824-3h.974a7.018 7.018 0 0 0 .3 1.2l.075.45.3 1.274.225-.974.15-.675c.15-.6.15-.75.3-1.274h.824c-.675 2.4-.75 2.7-1.049 3.673M867.843 1222.378v.675h-2.4v-1.575a12.356 12.356 0 0 0-.075-2.1h2.324v.6h-1.349v.824h1.274v.6h-1.2v.9a8.605 8.605 0 0 0 1.424.075M869.118 1221.627a9.07 9.07 0 0 0 .075 1.424h-.9v-1.2a20.592 20.592 0 0 0-.075-2.548h1.049a2.577 2.577 0 0 1 1.2.15 1.019 1.019 0 0 1 .525.974.928.928 0 0 1-.75.974 5.439 5.439 0 0 1 .375.675 9.452 9.452 0 0 0 .675.974v.075h-1.049c-.375-.675-.45-.824-.75-1.424l-.375-.075m0-.675a1.288 1.288 0 0 0 .6-.075.449.449 0 0 0 .225-.45c0-.45-.375-.45-.6-.45h-.225zM872.865 1219.978v3.073h-.9a20.005 20.005 0 0 0 0-3h-.824v-.673h2.623v.675l-.9-.075M875.865 1223.051h-.9v-1.5a1.639 1.639 0 0 0-.225-.375 35.412 35.412 0 0 1-.974-1.724v-.074h.974c.15.375.225.525.3.675a6.966 6.966 0 0 1 .375.75l.675-1.349h.824l-1.2 2.1a4.621 4.621 0 0 1 .15 1.5M879.536 1221.552a9.556 9.556 0 0 0 .075 1.5h-.974v-1.8a12.771 12.771 0 0 0-.075-1.874h2.324l-.075.675h-1.274v.9l1.2-.075-.075.6h-1.124M882.234 1219.303v3.673h-.974v-1.5a14.06 14.06 0 0 0-.075-2.174h1.049M885.907 1222.151v.824a2.987 2.987 0 0 1-1.274.225c-.3 0-.525-.075-.675-.075a1.445 1.445 0 0 1-.9-.6 2.074 2.074 0 0 1-.375-1.2 2.115 2.115 0 0 1 .3-1.124 1.887 1.887 0 0 1 1.649-.9 3.228 3.228 0 0 1 1.124.225 2.311 2.311 0 0 0-.075.75h-.075a1.422 1.422 0 0 0-.9-.3c-.675 0-1.124.45-1.124 1.274 0 .375.15 1.2.974 1.2a.676.676 0 0 0 .375-.075 6.059 6.059 0 0 0-.075-1.124h.9v.9M889.58 1219.304v1.049c0 .9 0 1.8.075 2.623h-.974v-1.647h-1.2a10.059 10.059 0 0 0 .075 1.574h-.974v-1.2a19.859 19.859 0 0 0-.075-2.473h.974v1.424h1.2a8.147 8.147 0 0 0-.075-1.349h.974M891.604 1219.978v3.073h-.9a20.009 20.009 0 0 0 0-3h-.824v-.673h2.623v.675l-.9-.075M893.702 1219.303v3.673h-.974v-1.5a14.057 14.057 0 0 0-.075-2.174h1.049M897.525 1219.303v3.748h-.673l-.45-.675-.525-.75a11.344 11.344 0 0 1-.675-1.049v1.349l.075 1.124h-.75v-1.574a20.347 20.347 0 0 0-.075-2.1h.9c.15.225.225.3.6.9l.45.675a5.086 5.086 0 0 1 .45.675v-2.323h.675M901.198 1222.151v.824a2.987 2.987 0 0 1-1.274.225c-.3 0-.525-.075-.675-.075a1.445 1.445 0 0 1-.9-.6 2.074 2.074 0 0 1-.375-1.2 2.115 2.115 0 0 1 .3-1.124 1.887 1.887 0 0 1 1.649-.9 3.228 3.228 0 0 1 1.124.225 2.311 2.311 0 0 0-.075.75h-.075a1.422 1.422 0 0 0-.9-.3c-.675 0-1.124.45-1.124 1.274 0 .375.15 1.2.974 1.2a.676.676 0 0 0 .375-.075 6.059 6.059 0 0 0-.075-1.124h.9v.9M906.295 1219.303v3.748h-.673l-.45-.675-.525-.75a11.347 11.347 0 0 1-.675-1.049v1.349l.075 1.124h-.75v-1.574a20.347 20.347 0 0 0-.075-2.1h.9c.15.225.225.3.6.9l.45.675a5.086 5.086 0 0 1 .45.675v-2.323h.675M909.367 1222.378v.675h-2.4v-1.575a12.356 12.356 0 0 0-.075-2.1h2.324v.6h-1.349v.824h1.274v.6h-1.2v.9a8.606 8.606 0 0 0 1.424.075M911.167 1219.978v3.073h-.9a20.005 20.005 0 0 0 0-3h-.824v-.673h2.623v.675l-.9-.075M916.188 1223.051h-1.274l-.075-.75-.15-.824c-.075-.6-.075-.675-.15-1.2l-.225 1.124-.15.974-.075.675h-1.2c-.3-1.5-.375-1.949-.75-3.673a3.961 3.961 0 0 0 .9-.075l.15 1.049.15.75c.075.675.15.824.225 1.274l.15-.75.225-1.049.225-1.2h1.049l.15.824.15.9c.075.6.15.824.225 1.349l.15-.9.15-.824a10.108 10.108 0 0 0 .225-1.349h.824c-.6 2.249-.675 2.7-.9 3.673M920.461 1221.178a1.922 1.922 0 0 1-.6 1.574 2.02 2.02 0 0 1-1.124.375 1.724 1.724 0 0 1-1.2-.45 1.854 1.854 0 0 1-.525-1.5 1.275 1.275 0 0 1 .075-.525 1.713 1.713 0 0 1 .824-1.2 2.075 2.075 0 0 1 .974-.225 1.382 1.382 0 0 1 .974.3.585.585 0 0 1 .3.3 2.6 2.6 0 0 1 .3 1.349m-1.724-1.274a.815.815 0 0 0-.375.075c-.225.15-.375.45-.375 1.124 0 .45.075 1.349.75 1.349.6 0 .75-.6.75-1.349a1.463 1.463 0 0 0-.075-.525 1.065 1.065 0 0 0-.15-.45.68.68 0 0 0-.523-.222zM921.811 1221.627a9.068 9.068 0 0 0 .075 1.424h-.9v-1.2a20.594 20.594 0 0 0-.075-2.548h1.049a2.577 2.577 0 0 1 1.2.15 1.019 1.019 0 0 1 .525.974.928.928 0 0 1-.75.974 5.439 5.439 0 0 1 .375.675 9.454 9.454 0 0 0 .675.974v.075h-1.049c-.375-.675-.45-.824-.75-1.424l-.375-.075m0-.675a1.288 1.288 0 0 0 .6-.075.449.449 0 0 0 .225-.45c0-.45-.375-.45-.6-.45h-.225zM927.207 1219.379c-.375.45-.525.675-1.2 1.574a23.683 23.683 0 0 0 1.349 2.024v.075h-1.049c-.225-.375-.3-.6-.75-1.349a5.114 5.114 0 0 0-.375-.525 14.459 14.459 0 0 0 .075 1.874h-.9v-1.349a17.149 17.149 0 0 0-.075-2.324h.9v1.649c.375-.525.45-.675 1.049-1.574h.075a1.22 1.22 0 0 1 .9-.075M828.343 1217.43h99.688m-99.688 7.42h99.688M928.031 1225.005h-99.688v-.375h99.688zm0-7.42h-99.688v-.38h99.688z"/></svg>