<svg xmlns="http://www.w3.org/2000/svg" viewBox="169 -114 188.201 97.116"><defs><style>.a{fill:#c60751}.b{fill:#005288}</style></defs><path class="a" d="M205.043-102.356c-2.348 4.814-6.927 7.514-10.214 6.105s-3.992-6.457-1.644-11.271 6.927-7.514 10.214-6.105 4.109 6.457 1.644 11.271"/><path class="a" d="M214.905-77.818c.587-.939 1.174-2 1.761-2.935.587-1.057 1.878-.587.7 1.879a23.643 23.643 0 0 1-1.761 3.17c-.7 1.057.117 1.526 1.409-.235 1.879-2.348 3.64-4.7 4.461-5.988.939-1.409 2.231-.822 1.057.7-1.409 1.879-2.231 3.053-3.053 4.227-.939 1.174-.235 2 .939.47 1.291-1.761 3.053-3.757 4.109-5.283 1.174-1.526 2-.47 1.174.587-1.644 2.113-3.17 4.109-4.109 5.518-.822 1.174-.117 1.761.822.7 1.057-1.291 2.348-3.053 3.287-3.992.7-.822 1.526-.235.822.587a20.4 20.4 0 0 1-1.291 1.761c-2.466 3.17-2.935 3.64-2.583 3.992.47.352 1.526-.7 3.053-2.466.939-1.174 1.878-.7.822.822a8.865 8.865 0 0 1-1.288 1.651c-1.291 1.409-14.089 17.024-27.121 25.947-50.6-24.89-25.008-58.351.117-44.732 9.98-15.732 32.522-9.04 13.854 8.218-6.81 6.105-14.793 7.162-24.538 5.283-1.174-.235-1.526 1.057.939 1.761a15.653 15.653 0 0 0 3.287.7c1.174.235.939 1.057-1.057 1.057-2.7-.117-5.753-.235-7.162-.352-1.526 0-1.526 1.291-.117 1.291 2.113.117 3.757.235 5.048.235 1.409 0 1.526 1.174-.235 1.057-2-.117-4.461-.117-6.223-.117-1.409 0-1.291 1.291-.235 1.291 2.466.117 4.814.117 6.34.235 1.291.117 1.291 1.057 0 1.057-1.526 0-3.64-.117-4.814 0-.939 0-1.057 1.057 0 1.057.47 0 1.174.117 2 .117 3.757.117 4.344 0 4.344.587s-2.113.7-4.227.822c-1.526 0-1.761 1.057.117 1.174 14.441.822 23.6-2.818 29.352-11.858"/><path class="b" d="M239.912-101.651c-.352 1.409-.352 1.761-.7 3.17h-.939c.235-1.174.352-1.409.7-2.818h-2.818c-.235 1.057-.352 1.409-.587 2.7h-1.056l.235-1.057.352-1.761c.352-1.526.352-1.761.7-3.053h1.057l-.352 1.526-.117.7h2.7l.235-.822.235-1.409h.939l-.235 1.291-.352 1.526M241.674-101.065c.117-.235.117-.47.352-.7a1.068 1.068 0 0 1 .939-.47c.7 0 .939.352.939.822v.352h-2.231m2.583 1.644a2.227 2.227 0 0 1-1.409.47c-.822 0-1.291-.352-1.291-1.057v-.352h2.935c0-.235.117-.47.117-.7a1.361 1.361 0 0 0-.47-1.174 1.983 1.983 0 0 0-1.174-.352 2.5 2.5 0 0 0-2.347 2.691 1.641 1.641 0 0 0 1.409 1.761h.591a3.126 3.126 0 0 0 1.409-.352zM246.722-101.299c-.352 1.409-.352 1.644-.587 2.818h-.939l.352-1.761.47-1.878a21.671 21.671 0 0 0 .47-2.7l.939-.117-.47 2.231-.235 1.409M248.957-101.652a1.4 1.4 0 0 1 .939-.47c.47 0 .939.235.939 1.057a2.041 2.041 0 0 1-2.231 2h-.352l.7-2.583m.235-1.057l-.939.117c-.117.47-.117.7-.235 1.409s-.352 1.409-.47 2.113l-.117.7-.47 1.878h.822a18.163 18.163 0 0 0 .352-2h.47a3.246 3.246 0 0 0 2.583-1.057 2.805 2.805 0 0 0 .587-1.644 1.513 1.513 0 0 0-1.526-1.644 3.446 3.446 0 0 0-1.174.352zM254.588-104.704h-.939l-.117.117-.117.822v.117l.822-.117.117-.117.235-.822m-1.057 5.048l.117-.822c.235-1.174.352-1.409.47-2.113l-.939.117h-.117c-.117.587-.117.7-.235 1.409l-.117.47c-.235 1.057-.235 1.291-.47 2.231h.822zM258.228-98.481l-.939.117.352-1.526.235-.939c0-.235.117-.352.117-.587a.677.677 0 0 0-.7-.7 1.488 1.488 0 0 0-1.057.47c-.352 1.409-.352 1.879-.7 3.17h-.83l.352-1.409.117-.587a13.234 13.234 0 0 0 .352-2.113c.352 0 .47-.117.822-.117l-.117.47a2.227 2.227 0 0 1 1.409-.47 1.1 1.1 0 0 1 1.174 1.057 7.928 7.928 0 0 1-.235 1.644l-.117.587-.235.939M263.041-102.121l-.587 2.7c-.235.117-.352.235-.587.352h-.352a.936.936 0 0 1-.939-1.057 2.518 2.518 0 0 1 .47-1.409 2.379 2.379 0 0 1 1.879-.7l.117.117m1.057-.587h-1.174a2.744 2.744 0 0 0-2.818 1.291 2.937 2.937 0 0 0-.352 1.526 1.513 1.513 0 0 0 1.526 1.644 2.78 2.78 0 0 0 1.174-.352l-.117.47a1.405 1.405 0 0 1-1.409 1.291 1.328 1.328 0 0 1-1.291-.587h-.117l-.352.47v.117a1.621 1.621 0 0 0 .47.352 4.172 4.172 0 0 0 1.174.235 2.2 2.2 0 0 0 1.644-.587 5.722 5.722 0 0 0 .7-1.879l.235-1.057c.352-1.526.47-1.879.7-2.935zM268.912-102.826l.117-.7h.235a2.317 2.317 0 0 1 1.057.117.786.786 0 0 1 .47.822 1.2 1.2 0 0 1-.7 1.174 2.753 2.753 0 0 1-1.409.235h-.235l.47-1.644m-.7 3.287l.235-1.057h.47a2.917 2.917 0 0 0 2.583-.822 2.462 2.462 0 0 0 .47-1.291 1.515 1.515 0 0 0-.587-1.291 3.244 3.244 0 0 0-1.644-.235h-1.291c-.235 1.174-.352 1.526-.7 3.17l-.235.939-.352 1.644h.822v-.117zM272.786-101.065c.117-.235.117-.47.352-.7a1.068 1.068 0 0 1 .939-.47c.7 0 .822.352.822.822v.352h-2.113m2.583 1.644a2.227 2.227 0 0 1-1.409.47c-.822 0-1.291-.352-1.291-1.057v-.352h2.935c0-.235.117-.47.117-.7a1.361 1.361 0 0 0-.47-1.174 1.983 1.983 0 0 0-1.174-.352 2.5 2.5 0 0 0-2.348 2.7 1.641 1.641 0 0 0 1.409 1.761h.587a3.126 3.126 0 0 0 1.409-.352zM279.478-100.477c-.117.7-.47 1.644-1.409 1.644-.47 0-.822-.235-.822-.939 0-.352.117-2.348 1.526-2.348.352 0 .822.117.822.939 0 .235-.117.47-.117.7m.822.235a2 2 0 0 0 .117-.822 1.575 1.575 0 0 0-1.761-1.644c-1.761 0-2.348 1.761-2.348 2.818 0 1.174.587 1.644 1.761 1.644a2.281 2.281 0 0 0 2.231-1.992zM282.649-101.652a1.4 1.4 0 0 1 .939-.47c.47 0 .939.235.939 1.057a2.115 2.115 0 0 1-2.231 2h-.352l.7-2.583m.117-1.057l-.939.117h-.117c-.117.47-.117.7-.235 1.409s-.352 1.409-.47 2.113l-.117.7-.47 1.878h.822a18.167 18.167 0 0 0 .352-2h.47a3.246 3.246 0 0 0 2.583-1.057 2.805 2.805 0 0 0 .587-1.644 1.513 1.513 0 0 0-1.526-1.644 3.445 3.445 0 0 0-1.174.352zM287.462-101.299c-.352 1.409-.352 1.644-.587 2.818h-.939l.352-1.761.47-1.878a21.668 21.668 0 0 0 .47-2.7l.939-.117-.47 2.231-.235 1.409M289.341-101.065c.117-.235.117-.47.352-.7a1.144 1.144 0 0 1 1.057-.47c.7 0 .822.352.822.822v.352h-2.231m2.583 1.644a2.227 2.227 0 0 1-1.409.47c-.822 0-1.291-.352-1.291-1.057v-.352h2.935c0-.235.117-.47.117-.7a1.361 1.361 0 0 0-.47-1.174 1.983 1.983 0 0 0-1.174-.352 2.5 2.5 0 0 0-2.348 2.7 1.641 1.641 0 0 0 1.409 1.761h.587a3.126 3.126 0 0 0 1.409-.352zM293.685-98.482l-.117.117h-.822l-.117-.117.235-.822.939-.117.117.117-.235.822M301.786-98.716a3.146 3.146 0 0 1-1.526.352 2.276 2.276 0 0 1-2.466-2.466 3.494 3.494 0 0 1 3.4-3.64 2.245 2.245 0 0 1 1.644.47v.117l-.235.7h-.109l-.235-.235a1.578 1.578 0 0 0-1.057-.235 2.722 2.722 0 0 0-2.466 2.818 1.662 1.662 0 0 0 1.758 1.766 2.473 2.473 0 0 0 1.526-.587l-.235.939M306.365-98.482l-.939.117.235-.822.235-.822c.117-.352.117-.7.235-1.057v-.352c0-.352-.235-.587-.7-.587h-.352a1.892 1.892 0 0 0-.822.47l-.352 1.526-.352 1.761h-.828l.7-2.935a19.126 19.126 0 0 0 .47-2.113 10.171 10.171 0 0 1 .235-1.174h.117l.939-.117v.117c-.235.939-.352 1.291-.587 2.583a2.517 2.517 0 0 1 1.409-.47c.47 0 1.174.117 1.174 1.057a4.044 4.044 0 0 1-.117 1.057l-.235 1.057-.47.7M310.591-99.421c-.117.117-.235.117-.235.235a1.669 1.669 0 0 1-.7.235.95.95 0 0 1-.939-1.057 2.371 2.371 0 0 1 .939-1.761 2.135 2.135 0 0 1 1.291-.352h.352l-.7 2.7m1.644-3.17l-1.174-.117a2.894 2.894 0 0 0-2.583.939 3.305 3.305 0 0 0-.7 1.761 1.513 1.513 0 0 0 1.526 1.644 1.558 1.558 0 0 0 1.174-.47v.352h.822l.117-.117c.117-.939.235-1.291.47-2.583zM316.226-98.481l-.939.117.352-1.526.235-.939c0-.235.117-.352.117-.587a.677.677 0 0 0-.7-.7 1.488 1.488 0 0 0-1.057.47c-.352 1.409-.352 1.879-.7 3.17h-.83l.352-1.409.117-.587a13.234 13.234 0 0 0 .352-2.113c.352 0 .47-.117.822-.117l-.117.47a2.227 2.227 0 0 1 1.409-.47 1.1 1.1 0 0 1 1.174 1.057 7.928 7.928 0 0 1-.235 1.644l-.117.587-.235.939M321.157-102.121l-.587 2.7c-.235.117-.352.235-.587.352h-.352a.936.936 0 0 1-.939-1.057 2.518 2.518 0 0 1 .47-1.409 2.379 2.379 0 0 1 1.879-.7l.117.117m.939-.587h-1.174a3 3 0 0 0-2.935 1.291 2.937 2.937 0 0 0-.352 1.526 1.513 1.513 0 0 0 1.526 1.644 2.78 2.78 0 0 0 1.174-.352l-.117.47a1.405 1.405 0 0 1-1.409 1.291 1.328 1.328 0 0 1-1.291-.587h-.117l-.352.47v.117a1.621 1.621 0 0 0 .47.352 4.221 4.221 0 0 0 1.291.235 2.2 2.2 0 0 0 1.644-.587 5.722 5.722 0 0 0 .7-1.879l.235-1.057a25.18 25.18 0 0 0 .7-2.935zM323.388-98.482l-.939.117a12.468 12.468 0 0 0 .47-2.231l.117-.47c.117-.7.117-.822.235-1.409l.939-.117c-.235.822-.235 1.057-.47 2.113l-.235.822-.117 1.174m1.291-5.4l-.939.235v-.117l.117-.822.117-.117.822-.117.117.117zM328.437-98.481l-.939.117.352-1.526.235-.939c0-.235.117-.352.117-.587a.677.677 0 0 0-.7-.7 1.488 1.488 0 0 0-1.057.47c-.352 1.409-.352 1.879-.7 3.17h-.83l.352-1.409.117-.587a13.23 13.23 0 0 0 .352-2.113c.352 0 .47-.117.822-.117l-.117.47a2.227 2.227 0 0 1 1.409-.47 1.1 1.1 0 0 1 1.174 1.057 7.928 7.928 0 0 1-.235 1.644l-.117.587-.235.939M333.251-102.121l-.587 2.7c-.235.117-.352.235-.587.352h-.352a.936.936 0 0 1-.939-1.057 2.518 2.518 0 0 1 .47-1.409 2.379 2.379 0 0 1 1.879-.7l.117.117m1.057-.587h-1.174a3 3 0 0 0-2.935 1.291 2.937 2.937 0 0 0-.352 1.526 1.513 1.513 0 0 0 1.526 1.644 2.78 2.78 0 0 0 1.174-.352l-.117.47a1.405 1.405 0 0 1-1.409 1.291 1.328 1.328 0 0 1-1.291-.587h-.117l-.352.47v.117a1.622 1.622 0 0 0 .47.352 4.221 4.221 0 0 0 1.291.235 2.2 2.2 0 0 0 1.644-.587 5.722 5.722 0 0 0 .7-1.879l.235-1.057c.352-1.526.47-1.879.7-2.935zM340.525-98.482h-3.4l.47-1.761.47-1.878.47-2.231h.939l-.47 2-.352 1.526-.352 1.526h2.465l-.235.822M342.408-98.482l-.939.117a12.468 12.468 0 0 0 .47-2.231l.117-.47c.117-.7.117-.822.235-1.409l.939-.117c-.235.822-.235 1.057-.47 2.113l-.117.822-.235 1.174m1.174-5.4l-.939.235v-.117l.117-.822.117-.117.822-.117.117.117zM346.4-100.008a3.861 3.861 0 0 0-.352.7 5.1 5.1 0 0 1-.47.822h-1.174l-.117-1.644-.117-.939-.236-1.639h.939l.117 1.291.117 1.057.117 1.291 1.174-2.231a15.674 15.674 0 0 0 .7-1.409h.939c-.117.235-.7 1.174-.822 1.409l-.815 1.292M348.983-101.065c.117-.235.117-.47.352-.7a1.068 1.068 0 0 1 .939-.47c.7 0 .822.352.822.822v.352h-2.113m2.466 1.644a2.518 2.518 0 0 1-1.409.47c-.822 0-1.291-.352-1.291-1.057v-.352h2.935c0-.235.117-.47.117-.7a1.361 1.361 0 0 0-.47-1.174 1.983 1.983 0 0 0-1.174-.352 2.5 2.5 0 0 0-2.348 2.7 1.641 1.641 0 0 0 1.409 1.761h.587a3.126 3.126 0 0 0 1.409-.352zM355.67-101.769a1.753 1.753 0 0 0-1.174-.352c-.47 0-.822.235-.822.587s.352.47.7.7l.47.235a1.241 1.241 0 0 1 .7 1.057c0 .7-.587 1.409-1.761 1.409a2.109 2.109 0 0 1-1.526-.47v-.117l.235-.587h.117a1.565 1.565 0 0 0 1.174.47c.587 0 .939-.352.939-.7s-.235-.47-.7-.7l-.235-.117c-.352-.235-.939-.47-.939-1.057 0-.352.235-1.409 1.761-1.409a2.09 2.09 0 0 1 1.291.352v.117l-.235.587M357.084-98.482l-.117.117h-.94v-.117l.117-.822h.117l.939-.117v.117l-.117.822M269.616-86.154c.235-.939.117-1.409-.47-1.409-.7 0-.939.47-1.409 2.935s-.587 2.935.117 2.935.939-.47 1.291-2.231h3.287a5.8 5.8 0 0 1-1.644 3.4 4.928 4.928 0 0 1-3.4 1.057c-3.874 0-3.874-2.466-3.287-5.283s1.526-5.166 5.4-5.166c3.287 0 3.874 1.174 3.17 4.227h-3.287l.235-.47M277.013-84.745c.47-2.348.822-2.935 1.409-2.935s.7.587.117 2.935c-.47 2.348-.822 2.935-1.409 2.935s-.587-.587-.117-2.935m1.879-5.166c-3.874 0-4.814 2.466-5.4 5.166-.587 2.818-.7 5.283 3.287 5.283 3.874 0 4.814-2.466 5.518-5.283.469-2.7.587-5.166-3.405-5.166zM293.684-86.271c.117-.7 0-.939-.47-.939s-.822.352-.939.939l-1.409 6.575h-3.522l1.409-6.575c.117-.7 0-.939-.47-.939s-.822.352-.939.939l-1.409 6.575h-3.522l2.113-9.98h3.4l-.235 1.174a3.562 3.562 0 0 1 2.935-1.409 2.01 2.01 0 0 1 2.113 1.409 3.562 3.562 0 0 1 2.935-1.409c1.291 0 2.231.7 1.879 2.466l-1.64 7.634h-3.52l1.291-6.457M308.83-86.271c.117-.7 0-.939-.47-.939s-.822.352-.939.939l-1.409 6.575h-3.522l1.409-6.575c.117-.7 0-.939-.47-.939s-.822.352-.939.939l-1.409 6.575h-3.522l2.113-9.98h3.4l-.235 1.174a3.562 3.562 0 0 1 2.935-1.409 2.01 2.01 0 0 1 2.113 1.409 3.562 3.562 0 0 1 2.935-1.409c1.291 0 2.231.7 1.879 2.466l-1.64 7.634h-3.52l1.291-6.457M317.753-80.871a3.722 3.722 0 0 1-2.935 1.409c-1.291 0-2.231-.7-1.879-2.466l1.644-7.631h3.522l-1.409 6.575c-.117.7 0 .939.47.939s.822-.352.939-.939l1.409-6.575h3.522l-2.113 9.98h-3.4l.235-1.292M328.789-86.271c.117-.7 0-.939-.47-.939s-.822.352-.939.939l-1.409 6.575h-3.522l2.113-9.98h3.4l-.235 1.174a3.562 3.562 0 0 1 2.935-1.409c1.292 0 2.231.7 1.879 2.466l-1.644 7.631h-3.522l1.409-6.457M334.659-89.676h3.522l-2.113 9.98h-3.522l2.113-9.98m.7-3.287h3.522l-.587 2.583h-3.522zM340.999-92.611h3.522l-.587 2.935h1.291l-.47 2.348h-1.291l-.939 4.461c-.117.587-.117.939.47.939h.587l-.47 2.348c-.352 0-1.291.117-1.761.117-2 0-3.053-.117-2.583-2.348l1.174-5.4h-1.057l.47-2.348h1.057l.587-3.053M345.695-89.676h3.64l-.352 5.988 2.113-5.988h3.521l-4.7 9.862c-1.174 2.348-1.761 3.287-4.461 3.287-.822 0-1.291-.117-1.644-.117l.47-2.348h.939a.993.993 0 0 0 .7-.235 2.566 2.566 0 0 0 .352-.587l-.587-9.862M188.489-38.605l.235-.7h.235a3.271 3.271 0 0 1 1.174.117.69.69 0 0 1 .47.7 1.593 1.593 0 0 1-.822 1.291 2.978 2.978 0 0 1-1.409.235h-.235l.352-1.644m-1.057 3.874l.235-.939h.47c1.409 0 2.935 0 3.874-1.174a2.805 2.805 0 0 0 .587-1.644 1.937 1.937 0 0 0-1.057-1.761 6.918 6.918 0 0 0-2.466-.235h-2.113l-.117.117c-.352 1.526-.47 2-1.057 3.992l-.352 1.174-.587 2 .117.117h2l.117-.117zM204.338-39.426v2.935h-1.761l1.761-2.935m1.644-1.174h-2.583l-.117.117c-.587 1.057-.939 1.526-1.526 2.466l-1.409 2.231a13.5 13.5 0 0 1-1.526 2.348v.117h1.878l.117-.117.587-1.174.352-.7h2.465v2l.117.117h2l.117-.117a50.525 50.525 0 0 0-.47-7.279zM218.774-38.6l.235-.587h.352c.7 0 1.409 0 1.409.822a1.052 1.052 0 0 1-.822 1.057 4.816 4.816 0 0 1-1.291.117h-.235l.352-1.409m-1.526-1.878c-.352 1.526-.47 2-.939 3.757l-.352 1.291-.587 2.113.117.117h2l.117-.117a14.054 14.054 0 0 1 .7-2.818h.587l.7 1.761.352 1.057.117.117 2-.117.117-.117-.587-1.291-.822-1.761a3.13 3.13 0 0 0 1.644-.822 2.473 2.473 0 0 0 .587-1.526 1.533 1.533 0 0 0-.7-1.409 5.01 5.01 0 0 0-2.583-.352zM233.924-33.321l-.117.117h-2l-.117-.117.47-1.409.587-2.113.587-2.348h-2.11v-.117l.352-1.174h4.109l2-.117.117.117-.352 1.174-.117.117h-1.878l-.47 1.761-.587 2.113-.47 2M251.536-33.321l-1.644.117h-.118l-.587-1.174-1.879-3.757-.7 3.287-.352 1.644h-1.761l-.117-.117.7-2.348.47-1.879c.352-1.526.47-1.879.7-2.935l.117-.117h1.879l.587 1.291.822 1.526c.587 1.057.587 1.174.939 1.761l.7-2.7.47-1.879h1.761l.117.117-.7 2.818-.352 1.409-1.057 2.935M266.68-33.321l-3.17.117h-2.23v-.117l.587-2.113.47-1.644c.47-1.644.47-2 .822-3.4l.117-.117h5.048l.117.117-.352 1.174-.117.117h-2.935l-.47 1.644h2.818v.117l-.352 1.174h-2.935l-.235.7-.352 1.174h3.287l.117.117-.235.939M279.591-38.6l.235-.587h.352c.7 0 1.409 0 1.409.822a1.052 1.052 0 0 1-.822 1.057 4.816 4.816 0 0 1-1.291.117h-.235l.352-1.409m-1.526-1.878c-.352 1.526-.47 2-.939 3.757l-.352 1.291-.587 2.113.117.117h2l.117-.117a14.052 14.052 0 0 1 .7-2.818h.587l.7 1.761.352 1.057.117.117 2-.117v-.117l-.587-1.291-.822-1.761a3.13 3.13 0 0 0 1.644-.822 2.473 2.473 0 0 0 .587-1.526 1.533 1.533 0 0 0-.7-1.409 5.01 5.01 0 0 0-2.583-.352zM291.454-33.79l.352-1.292h.117a3.21 3.21 0 0 0 .587.47 2.662 2.662 0 0 0 1.409.352c.822 0 1.526-.352 1.526-.939 0-.47-.47-.822-1.057-1.057l-.352-.235c-.587-.352-1.526-.7-1.526-1.761a2.1 2.1 0 0 1 .587-1.526 3.8 3.8 0 0 1 2.583-.822 4.586 4.586 0 0 1 2.466.587v.117l-.47 1.291h-.117l-.352-.352a2.5 2.5 0 0 0-1.409-.352c-.7 0-1.291.352-1.291.822s.352.7 1.174 1.057l.235.117c.587.352 1.526.822 1.526 1.879 0 1.291-1.057 2.466-3.522 2.466a9.063 9.063 0 0 1-1.766-.232 3.722 3.722 0 0 0-.7-.587M314.348-37.078a15.637 15.637 0 0 0-.587 2.231c-.117.47-.235 1.057-.352 1.526l-.117.117h-2v-.117l.822-3.17h-3.053l-.822 3.17-.117.117h-2v-.117l.352-1.291.587-2.231c.352-1.409.47-1.879.939-3.64l.117-.117h2l.117.117-.47 1.644-.352 1.174h3.053l.235-.939.352-1.644.117-.117h2.113l.117.117-.47 1.644-.587 1.526M325.266-33.321l-2.113.117v-.117l.352-1.409.587-2.231a21.593 21.593 0 0 0 .822-3.522l.117-.117h2.113v.117c-.47 1.761-.587 2.231-1.174 4.109l-.352 1.409-.352 1.644M338.417-38.605l.235-.7h.352a3.271 3.271 0 0 1 1.174.117.869.869 0 0 1 .47.7 1.593 1.593 0 0 1-.822 1.291 2.978 2.978 0 0 1-1.409.235h-.24l.235-1.644m-1.057 3.874l.235-.939h.47c1.409 0 2.935 0 3.874-1.174a2.805 2.805 0 0 0 .587-1.644 1.937 1.937 0 0 0-1.057-1.761 6.918 6.918 0 0 0-2.466-.235h-2.113l-.117.117c-.352 1.526-.47 2-1.057 3.992l-.352 1.174-.587 2 .117.117h2l.117-.117zM247.778-68.543h-6.927l11.623-15.38-4.7 15.38m.7-22.777c-2 2.583-20.076 27.59-40.623 45.436h15.615l5.4-7.044 7.749-10.214h9.393l-5.4 17.259h11.752c4.461-20.194 5.753-25.947 10.449-45.436zM271.025-59.385a7.192 7.192 0 0 0 .235-3.757 1.428 1.428 0 0 0-1.526-1.057c-1.761 0-2.7 1.526-3.992 7.279s-1.057 7.279.822 7.279c1.409 0 2.466-.939 3.17-3.874l.352-1.526h7.162c-.822 3.64-1.879 6.223-3.874 7.984-1.878 1.644-4.579 2.466-7.866 2.466-6.105 0-9.862-1.879-7.749-11.975 2.466-11.154 7.514-12.8 13.5-12.8 7.044 0 8.218 3.992 6.927 9.862h-7.162M280.887-68.543h2.7l1.526-6.927h7.984l-1.526 6.927h3.17l-1.172 5.283h-3.17l-2.466 11.154c-.352 1.291.235 1.879 1.526 1.879h1.292l-1.174 5.166c-1.526.117-3.053.235-4.344.235-4.814 0-6.575-.822-5.518-5.988l2.7-12.445h-2.7l1.174-5.283M297.089-68.543h7.984l-5.048 23.486h-7.984l5.048-23.481m1.644-7.519h7.984l-1.291 5.87h-7.985zM312.47-56.802c1.292-5.988 2-7.279 3.757-7.279s1.879 1.409.587 7.279-2 7.279-3.757 7.279-1.878-1.409-.587-7.279m12.445 0c1.526-6.81 1.879-12.328-7.514-12.328-9.04 0-11.506 6.105-12.8 12.328-1.526 6.81-1.879 12.328 7.514 12.328 8.925-.001 11.391-6.106 12.8-12.328zM329.376-68.547h7.752l-.587 2.818h.117a7.423 7.423 0 0 1 6.57-3.518c3.522 0 5.988 1.291 4.814 6.34l-3.874 17.728h-7.984l3.4-15.5c.47-2 .117-2.818-1.292-2.818s-2.113.822-2.583 2.818l-3.4 15.5h-7.981l5.048-23.364M348.161-45.058a2.353 2.353 0 0 1-2.348-2.348 2.35 2.35 0 0 1 4.7 0 2.355 2.355 0 0 1-2.348 2.348m0-4.461a2.113 2.113 0 1 0 2.113 2.113 2.1 2.1 0 0 0-2.117-2.117zm-.117.587a1.271 1.271 0 0 1 .7.117.73.73 0 0 1 .47.7.759.759 0 0 1-.587.7c.235.117.352.117.352.587.117.352.117.7.235.939h-.587a1.271 1.271 0 0 1-.117-.7c-.117-.587-.117-.587-.587-.7h-.114v1.291h-.587v-3.06h.822zm-.352 1.174h.352c.235 0 .587 0 .587-.352 0-.117 0-.235-.235-.352h-.7v.7z"/><path class="a" d="M188.606-25.807c.47 1.761.587 2.231 1.644 5.753v.117h-1.41l-.352-1.526h-1.878l-.352 1.526h-1.292c1.174-3.522 1.526-4.344 1.879-5.753a8.884 8.884 0 0 1 1.761-.117m-.47 3.287l-.352-1.291-.235-1.057-.235.939-.47 1.409zM196.942-25.807v1.409a6.7 6.7 0 0 0 .117 1.526c0 .939.117 1.879.117 2.818h-1.408v-4.814l-.466 1.761-.352 1.174-.47 1.761h-1.178l-.822-1.879-.352-1.174-.352-1.409v4.7h-1.174c.235-2.7.235-3.287.352-5.753h2l.47 1.644.235.939.352 1.526.352-1.409.352-1.174.352-1.291a3.378 3.378 0 0 1 1.878-.352M201.99-20.989v1.057h-3.757v-2.466a19.354 19.354 0 0 0-.117-3.291h3.64v.939h-2.114v1.291h2v.939h-1.882v1.409a13.479 13.479 0 0 0 2.231.117M203.986-22.167a14.209 14.209 0 0 0 .117 2.231h-1.409v-1.879a32.259 32.259 0 0 0-.117-3.992h1.644a4.037 4.037 0 0 1 1.879.235 1.6 1.6 0 0 1 .822 1.526 1.454 1.454 0 0 1-1.174 1.526 8.52 8.52 0 0 1 .587 1.057 14.8 14.8 0 0 0 1.057 1.526v.117h-1.645c-.587-1.057-.7-1.291-1.174-2.231l-.587-.117m0-1.057a2.018 2.018 0 0 0 .939-.117.7.7 0 0 0 .352-.7c0-.7-.587-.7-.939-.7h-.352zM209.27-25.807v5.753h-1.527v-2.353a22.023 22.023 0 0 0-.117-3.4h1.644M214.435-21.345v1.174a3.372 3.372 0 0 1-1.409.235 2.994 2.994 0 0 1 0-5.988 4.165 4.165 0 0 1 1.526.352l-.117 1.174h-.117a2.306 2.306 0 0 0-1.174-.352c-1.291 0-1.644 1.292-1.644 2a1.675 1.675 0 0 0 1.644 1.879 5.084 5.084 0 0 0 1.291-.47M218.192-25.807c.47 1.761.587 2.231 1.644 5.753v.117h-1.409l-.352-1.526h-1.761l-.352 1.526h-1.292c1.174-3.522 1.526-4.344 1.879-5.753a7.218 7.218 0 0 1 1.644-.117m-.47 3.287l-.353-1.287-.235-1.057-.235.939-.47 1.409zM221.01-26.159a6.922 6.922 0 0 1-.47.939c-.117.352-.352.7-.47 1.057h-.939a18.11 18.11 0 0 0 .587-2h1.291M223.945-23.459a2.566 2.566 0 0 1 .587.352 1.5 1.5 0 0 1 .587 1.291 1.874 1.874 0 0 1-.939 1.644 3.49 3.49 0 0 1-1.409.235 3.142 3.142 0 0 1-1.291-.235.41.41 0 0 1-.235-.117v-1.288h.117a1.985 1.985 0 0 0 1.409.47c.7 0 .939-.352.939-.7 0-.47-.47-.587-1.057-.939l-.235-.117a1.8 1.8 0 0 1-1.291-1.644c0-.939.587-1.761 2.113-1.761a2.421 2.421 0 0 1 1.526.352l-.117 1.057h-.122a2.137 2.137 0 0 0-1.291-.47c-.587 0-.822.352-.822.587 0 .352.352.47 1.057.822l.47.47M229.815-25.807a4.279 4.279 0 0 1 1.761.235 1.7 1.7 0 0 1 .822 1.526 1.877 1.877 0 0 1-.47 1.291 3.093 3.093 0 0 1-2.466.7v2h-1.408v-5.752h1.761m-.352 2.818a2.605 2.605 0 0 0 1.057-.117.869.869 0 0 0 .47-.822c0-.47-.235-.822-.939-.822h-.587zM238.151-22.871a3.01 3.01 0 0 1-.939 2.466 3.163 3.163 0 0 1-1.761.587 2.7 2.7 0 0 1-1.878-.7 2.9 2.9 0 0 1-.822-2.348 2 2 0 0 1 .117-.822 2.683 2.683 0 0 1 1.291-1.879 3.25 3.25 0 0 1 1.526-.352 2.165 2.165 0 0 1 1.526.47.917.917 0 0 1 .47.47 6 6 0 0 1 .47 2.113m-2.818-2a1.277 1.277 0 0 0-.587.117c-.352.235-.587.7-.587 1.761 0 .7.117 2.113 1.174 2.113.939 0 1.174-.939 1.174-2.113a2.292 2.292 0 0 0-.117-.822 1.669 1.669 0 0 0-.235-.7 1.066 1.066 0 0 0-.821-.357zM241.321-19.937h-1.761c-.117-.352-.117-.7-.235-1.057-.235-1.057-.822-2.818-1.291-4.7h1.526a10.993 10.993 0 0 0 .47 1.878l.117.7.47 2 .352-1.526.235-1.057c.235-.939.235-1.174.47-2h1.291c-1.057 3.757-1.174 4.227-1.644 5.753M247.074-20.989v1.057h-3.757v-2.466a19.354 19.354 0 0 0-.117-3.287h3.64v.939h-2.113v1.291h2v.939h-1.878v1.409a13.479 13.479 0 0 0 2.231.117M249.07-22.167a14.209 14.209 0 0 0 .117 2.231h-1.409v-1.879a32.254 32.254 0 0 0-.117-3.992h1.644a4.037 4.037 0 0 1 1.879.235 1.6 1.6 0 0 1 .822 1.526 1.454 1.454 0 0 1-1.174 1.526 8.52 8.52 0 0 1 .587 1.057 14.806 14.806 0 0 0 1.057 1.526v.117h-1.645c-.587-1.057-.7-1.291-1.174-2.231l-.587-.117m0-1.057a2.018 2.018 0 0 0 .939-.117.7.7 0 0 0 .352-.7c0-.7-.587-.7-.939-.7h-.352zM254.94-24.751v4.814h-1.409a31.334 31.334 0 0 0 0-4.7h-1.291v-1.053h4.109v1.057l-1.409-.117M259.636-19.937h-1.409v-2.353a2.567 2.567 0 0 0-.352-.587c-.235-.352-1.291-2.231-1.526-2.7v-.113h1.526c.235.587.352.822.47 1.057a10.913 10.913 0 0 1 .587 1.174l1.057-2.113h1.291l-1.879 3.287a7.239 7.239 0 0 1 .235 2.348M265.389-22.29a14.969 14.969 0 0 0 .117 2.348h-1.526v-2.818a20.009 20.009 0 0 0-.117-2.935h3.64l-.117 1.057h-2v1.409l1.879-.117-.117.939h-1.761M269.616-25.807v5.753h-1.526v-2.353a22.023 22.023 0 0 0-.117-3.4h1.644M275.369-21.346v1.291a4.678 4.678 0 0 1-2 .352c-.47 0-.822-.117-1.057-.117a2.263 2.263 0 0 1-1.409-.939 3.248 3.248 0 0 1-.587-1.878 3.313 3.313 0 0 1 .47-1.761 2.955 2.955 0 0 1 2.583-1.409 5.056 5.056 0 0 1 1.761.352 3.62 3.62 0 0 0-.117 1.174h-.117a2.227 2.227 0 0 0-1.409-.47c-1.057 0-1.761.7-1.761 2 0 .587.235 1.879 1.526 1.879a1.058 1.058 0 0 0 .587-.117 9.491 9.491 0 0 0-.117-1.761h1.409v1.409M281.122-25.807v1.644c0 1.409 0 2.818.117 4.109h-1.531v-2.583h-1.879a15.756 15.756 0 0 0 .117 2.466h-1.526v-1.879a31.107 31.107 0 0 0-.117-3.874h1.526v2.231h1.879a12.761 12.761 0 0 0-.117-2.113h1.526M284.292-24.751v4.814h-1.409a31.338 31.338 0 0 0 0-4.7h-1.291v-1.053h4.109v1.057l-1.409-.117M287.58-25.807v5.753h-1.526v-2.353a22.017 22.017 0 0 0-.117-3.4h1.644M293.567-25.807v5.87h-1.057l-.7-1.057-.822-1.174a17.767 17.767 0 0 1-1.057-1.644v2.113l.117 1.761h-1.174v-2.469a31.878 31.878 0 0 0-.117-3.287h1.409c.235.352.352.47.939 1.409l.7 1.057a7.962 7.962 0 0 1 .7 1.057v-3.636h1.057M299.319-21.346v1.291a4.678 4.678 0 0 1-2 .352c-.47 0-.822-.117-1.057-.117a2.263 2.263 0 0 1-1.409-.939 3.248 3.248 0 0 1-.587-1.878 3.313 3.313 0 0 1 .47-1.761 2.955 2.955 0 0 1 2.583-1.409 5.056 5.056 0 0 1 1.761.352 3.62 3.62 0 0 0-.117 1.174h-.117a2.227 2.227 0 0 0-1.409-.47c-1.057 0-1.761.7-1.761 2 0 .587.235 1.879 1.526 1.879a1.058 1.058 0 0 0 .587-.117 9.491 9.491 0 0 0-.117-1.761h1.409v1.409M307.304-25.807v5.87h-1.057l-.7-1.057-.822-1.174a17.774 17.774 0 0 1-1.057-1.644v2.113l.117 1.761h-1.174v-2.469a31.87 31.87 0 0 0-.117-3.287h1.409c.235.352.352.47.939 1.409l.7 1.057a7.968 7.968 0 0 1 .7 1.057v-3.636h1.057M312.117-20.989v1.057h-3.757v-2.466a19.354 19.354 0 0 0-.117-3.287h3.64v.939h-2.113v1.291h2v.939h-1.878v1.409a13.479 13.479 0 0 0 2.231.117M314.935-24.751v4.814h-1.409a31.334 31.334 0 0 0 0-4.7h-1.291v-1.053h4.109v1.057l-1.409-.117M322.801-19.937h-2l-.117-1.174-.235-1.291c-.117-.939-.117-1.057-.235-1.879l-.353 1.761-.235 1.526-.117 1.057h-1.879c-.47-2.348-.587-3.053-1.174-5.753a6.2 6.2 0 0 0 1.409-.117l.235 1.644.235 1.174c.117 1.057.235 1.291.352 2l.235-1.174.352-1.644.352-1.879h1.644l.235 1.291.235 1.409c.117.939.235 1.291.352 2.113l.235-1.409.235-1.291a15.833 15.833 0 0 0 .352-2.113h1.291c-.939 3.522-1.057 4.227-1.409 5.753M329.493-22.871a3.01 3.01 0 0 1-.939 2.466 3.163 3.163 0 0 1-1.761.587 2.7 2.7 0 0 1-1.879-.7 2.9 2.9 0 0 1-.822-2.348 2 2 0 0 1 .117-.822 2.683 2.683 0 0 1 1.291-1.879 3.25 3.25 0 0 1 1.526-.352 2.165 2.165 0 0 1 1.526.47.917.917 0 0 1 .47.47 4.074 4.074 0 0 1 .47 2.113m-2.7-2a1.276 1.276 0 0 0-.587.117c-.352.235-.587.7-.587 1.761 0 .7.117 2.113 1.174 2.113.939 0 1.174-.939 1.174-2.113a2.292 2.292 0 0 0-.117-.822 1.669 1.669 0 0 0-.235-.7 1.066 1.066 0 0 0-.821-.357zM331.607-22.167a14.2 14.2 0 0 0 .117 2.231h-1.409v-1.879a32.259 32.259 0 0 0-.117-3.992h1.644a4.037 4.037 0 0 1 1.878.235 1.6 1.6 0 0 1 .822 1.526 1.454 1.454 0 0 1-1.174 1.526 8.521 8.521 0 0 1 .587 1.057 14.81 14.81 0 0 0 1.057 1.526v.117h-1.644c-.587-1.057-.7-1.291-1.174-2.231l-.587-.117m0-1.057a2.018 2.018 0 0 0 .939-.117.7.7 0 0 0 .352-.7c0-.7-.587-.7-.939-.7h-.352zM340.06-25.69c-.587.7-.822 1.057-1.879 2.466a37.1 37.1 0 0 0 2.113 3.17v.117h-1.643c-.352-.587-.47-.939-1.174-2.113a8.013 8.013 0 0 0-.587-.822 22.649 22.649 0 0 0 .117 2.935h-1.409v-2.113a26.861 26.861 0 0 0-.117-3.64h1.409v2.583c.587-.822.7-1.057 1.644-2.466h.117a1.911 1.911 0 0 1 1.409-.117"/><g><path class="a" d="M185.201-28.742h156.15m-156.15 11.623h156.15M341.351-16.884h-156.15v-.587h156.15zm0-11.623h-156.15v-.587h156.15z"/></g></svg>