<svg xmlns="http://www.w3.org/2000/svg" viewBox="620 649.445 40.5 60.71"><defs><style>.a{fill:#fff}</style></defs><path class="a" d="M657.836 661.745h-4.36v-1.13a4.06 4.06 0 0 0-4.063-4.07h-1.938a7.226 7.226 0 0 0-14.451.027h-1.937a4.037 4.037 0 0 0-4.037 4.068v1.13h-4.386a2.659 2.659 0 0 0-2.664 2.61v43.165a2.642 2.642 0 0 0 2.664 2.61h35.172a2.659 2.659 0 0 0 2.664-2.61V664.38a2.682 2.682 0 0 0-2.664-2.635zm-17.6-8.5a3.447 3.447 0 0 1 3.445 3.337h-6.862a3.424 3.424 0 0 1 3.418-3.337zm16.927 53.707h-33.826v-41.98h3.713v2.96h26.426v-2.96h3.687v41.98zm0 0"/><path class="a" d="M652.48 673.476h-8.53a2.343 2.343 0 1 0 0 4.682h8.531a2.343 2.343 0 1 0 0-4.682zm0 0M631.652 675.71l-1.83-1.426a1.086 1.086 0 0 0-1.48.135l-1.076 1.157a1.2 1.2 0 0 0-.269.834 1.164 1.164 0 0 0 .4.753l3.175 2.53a1.9 1.9 0 0 0 2.556-.161l5.6-5.6a1.444 1.444 0 0 0 .4-1.023 1.571 1.571 0 0 0-.4-1.023l-.646-.646a1.446 1.446 0 0 0-2.045 0zm0 0M652.48 684.348h-8.53a2.343 2.343 0 1 0 0 4.682h8.531a2.343 2.343 0 1 0 0-4.682zm0 0M631.652 686.581l-1.83-1.426a1.086 1.086 0 0 0-1.48.135l-1.05 1.157a1.12 1.12 0 0 0-.269.834 1.228 1.228 0 0 0 .4.78l3.175 2.53a1.931 1.931 0 0 0 2.556-.161l5.6-5.6a1.43 1.43 0 0 0 0-2.045l-.646-.646a1.446 1.446 0 0 0-2.045 0zm0 0M652.48 694.843h-8.53a2.343 2.343 0 1 0 0 4.682h8.531a2.343 2.343 0 1 0 0-4.682zm0 0M631.652 697.076l-1.83-1.426a1.086 1.086 0 0 0-1.48.135l-1.05 1.157a1.12 1.12 0 0 0-.269.834 1.228 1.228 0 0 0 .4.78l3.175 2.5a1.96 1.96 0 0 0 2.556-.135l5.6-5.6a1.446 1.446 0 0 0 0-2.045l-.646-.646a1.5 1.5 0 0 0-2.045 0zm0 0"/></svg>