<svg xmlns="http://www.w3.org/2000/svg" viewBox="1704.375 656.149 49.625 44.502"><defs><style>.a{fill:#fff}</style></defs><path class="a" d="M1718.757 665.749a6.693 6.693 0 0 1 4.842-2.1h25.119v-5.218a2.357 2.357 0 0 0-2.369-2.282h-34.31a2.272 2.272 0 0 0-2.282 2.3v10.26h6.236zm0 0M1753.433 668.752a1.858 1.858 0 0 0-.608-.478 2.256 2.256 0 0 0-1.13-.3h-28.118a2.3 2.3 0 0 0-1.63.674l-.065.065-.934 1-2.391 2.557a1.311 1.311 0 0 1-.174.174 2.273 2.273 0 0 1-1.521.565h-10.169a2.2 2.2 0 0 0-1.543.587l-.2.2a.945.945 0 0 0-.13.152 2.413 2.413 0 0 0-.435 1.673l2.699 19.706a6.167 6.167 0 0 0 4.933 5.215 6.426 6.426 0 0 0 1.13.109h31.896a6.149 6.149 0 0 0 5.935-4.581 5.784 5.784 0 0 0 .152-.847l1.543-13.433 1.3-11.234c0-.065.022-.13.022-.2a2.283 2.283 0 0 0-.565-1.608zm0 0"/></svg>