<svg xmlns="http://www.w3.org/2000/svg" viewBox="265.093 658 53.434 48.1"><defs><style>.a{fill:#fff;fill-rule:evenodd}</style></defs><path class="a" d="M273.986 668.636h-7.8c-.748 0-.952-.159-1.043-.907a8.8 8.8 0 0 1 6.417-9.366 9.117 9.117 0 0 1 2.358-.34q14.526-.034 29.074-.023a8.212 8.212 0 0 1 8.209 6.645 9.46 9.46 0 0 1 .181 1.61V693.2c0 .113-.023.227-.023.363h-3.492v-27.354a4.622 4.622 0 0 0-3.4-4.513 6.2 6.2 0 0 0-1.587-.181h-27.556a1.18 1.18 0 0 0-.612.113c.068.023.113.045.181.068a3.534 3.534 0 0 1 2.631 3.56v31.614a5.811 5.811 0 0 0 5.6 5.669c3.152.068 5.533-1.383 6.509-4.037a8.671 8.671 0 0 0 .408-2c.068-.862.249-1.089 1.111-1.089h26.285c.748 0 .952.159 1.043.93a8.844 8.844 0 0 1-6.486 9.389 10.515 10.515 0 0 1-2.517.34c-8.64.023-17.3.023-25.944.023a9.367 9.367 0 0 1-9.479-9.5v-27.052a3.786 3.786 0 0 1-.068-.907z"/><path class="a" d="M292.673 672.219h-10.795c-.726 0-.771-.045-.771-.884 0-.816.045-.862.794-.862h21.544c.249 0 .7.159.726.295a3.6 3.6 0 0 1-.091 1.293c-.023.091-.386.136-.612.136-3.584.022-7.189.022-10.795.022zM292.673 674.034h10.794c.7 0 .748.045.748.816 0 .862-.045.907-.726.907h-21.588c-.748 0-.794-.045-.794-.862 0-.839.023-.884.816-.884 3.606.023 7.189.023 10.749.023zM292.742 677.593h10.749c.7 0 .771.068.771.816 0 .839-.045.907-.726.907h-21.7c-.522 0-.726-.2-.68-.7v-.34c-.045-.522.181-.726.7-.726 2.7.023 5.375 0 8.073 0 .908.043 1.86.043 2.813.043zM292.673 682.901h-10.749c-.249 0-.726-.136-.748-.272a3.578 3.578 0 0 1 .068-1.293c.023-.068.317-.159.476-.159h21.884c.454 0 .658.181.612.635v.34c0 .7-.068.771-.748.771h-8.459c-.771-.022-1.542-.022-2.336-.022zM292.628 686.461c-3.583 0-7.166 0-10.749-.023-.249 0-.68-.136-.68-.272a3.553 3.553 0 0 1 .068-1.293c.023-.091.431-.159.658-.159h21.5c.794 0 .839.045.839.794 0 .907-.023.93-.816.93-3.631.023-7.238.023-10.82.023zM292.673 690.022h-10.795c-.7 0-.748-.068-.748-.816 0-.862.023-.907.726-.907h21.657c.7 0 .748.045.726 1.021 0 .635-.091.7-.771.7zM292.741 666.912c3.56 0 7.121 0 10.681.023.249 0 .726.136.748.272a3.578 3.578 0 0 1-.068 1.293c-.023.091-.431.159-.658.159h-21.725c-.454 0-.658-.181-.612-.635a2.189 2.189 0 0 0 0-.386c-.045-.522.181-.726.7-.726 2.517.023 5.057 0 7.574 0z"/></svg>