<svg xmlns="http://www.w3.org/2000/svg" viewBox="169 -114 188.201 97.116"><defs><style>.a{fill:#c60751;}.b{fill:#005288;}</style></defs><g transform="translate(-641 -1459)"><g transform="translate(810 1345)"><path class="a" d="M92.663,112.326c-2.348,4.814-6.927,7.514-10.214,6.105s-3.992-6.457-1.644-11.271,6.927-7.514,10.214-6.105,4.109,6.457,1.644,11.271" transform="translate(-56.62 -100.682)"/><path class="a" d="M105.906,134.835c.587-.939,1.174-2,1.761-2.935.587-1.057,1.878-.587.7,1.879a23.643,23.643,0,0,1-1.761,3.17c-.7,1.057.117,1.526,1.409-.235,1.879-2.348,3.64-4.7,4.461-5.988.939-1.409,2.231-.822,1.057.7-1.409,1.879-2.231,3.053-3.053,4.227-.939,1.174-.235,2,.939.47,1.291-1.761,3.053-3.757,4.109-5.283,1.174-1.526,2-.47,1.174.587-1.644,2.113-3.17,4.109-4.109,5.518-.822,1.174-.117,1.761.822.7,1.057-1.291,2.348-3.053,3.287-3.992.7-.822,1.526-.235.822.587a20.4,20.4,0,0,1-1.291,1.761c-2.466,3.17-2.935,3.64-2.583,3.992.47.352,1.526-.7,3.053-2.466.939-1.174,1.878-.7.822.822A8.865,8.865,0,0,1,116.237,140c-1.291,1.409-14.089,17.024-27.121,25.947-50.6-24.89-25.008-58.351.117-44.732,9.98-15.732,32.522-9.04,13.854,8.218-6.81,6.105-14.793,7.162-24.538,5.283-1.174-.235-1.526,1.057.939,1.761a15.653,15.653,0,0,0,3.287.7c1.174.235.939,1.057-1.057,1.057-2.7-.117-5.753-.235-7.162-.352-1.526,0-1.526,1.291-.117,1.291,2.113.117,3.757.235,5.048.235,1.409,0,1.526,1.174-.235,1.057-2-.117-4.461-.117-6.223-.117-1.409,0-1.291,1.291-.235,1.291,2.466.117,4.814.117,6.34.235,1.291.117,1.291,1.057,0,1.057-1.526,0-3.64-.117-4.814,0-.939,0-1.057,1.057,0,1.057.47,0,1.174.117,2,.117,3.757.117,4.344,0,4.344.587s-2.113.7-4.227.822c-1.526,0-1.761,1.057.117,1.174,14.441.822,23.6-2.818,29.352-11.858" transform="translate(-60.001 -98.653)"/></g><path class="b" d="M121.2,111.618c-.352,1.409-.352,1.761-.7,3.17h-.939c.235-1.174.352-1.409.7-2.818h-2.818c-.235,1.057-.352,1.409-.587,2.7H115.8l.235-1.057.352-1.761c.352-1.526.352-1.761.7-3.053h1.057l-.352,1.526-.117.7h2.7l.235-.822.235-1.409h.939l-.235,1.291-.352,1.526" transform="translate(759.712 1245.731)"/><path class="b" d="M122.057,111.926c.117-.235.117-.47.352-.7a1.068,1.068,0,0,1,.939-.47c.7,0,.939.352.939.822v.352h-2.231m2.583,1.644h0a2.227,2.227,0,0,1-1.409.47c-.822,0-1.291-.352-1.291-1.057v-.352h2.935c0-.235.117-.47.117-.7a1.361,1.361,0,0,0-.47-1.174,1.983,1.983,0,0,0-1.174-.352A2.5,2.5,0,0,0,121,113.1a1.641,1.641,0,0,0,1.409,1.761H123a3.126,3.126,0,0,0,1.409-.352h0Z" transform="translate(760.617 1246.009)"/><path class="b" d="M126.426,112.04c-.352,1.409-.352,1.644-.587,2.818H124.9l.352-1.761.47-1.878a21.671,21.671,0,0,0,.47-2.7h0l.939-.117h0l-.47,2.231-.235,1.409" transform="translate(761.296 1245.661)"/><path class="b" d="M128.4,111.374a1.4,1.4,0,0,1,.939-.47c.47,0,.939.235.939,1.057a2.041,2.041,0,0,1-2.231,2h-.352l.7-2.583m.235-1.057h0l-.939.117h0c-.117.47-.117.7-.235,1.409s-.352,1.409-.47,2.113l-.117.7-.47,1.878h.822a18.163,18.163,0,0,0,.352-2h.47a3.246,3.246,0,0,0,2.583-1.057,2.805,2.805,0,0,0,.587-1.644,1.513,1.513,0,0,0-1.526-1.644,3.446,3.446,0,0,0-1.174.352Z" transform="translate(761.557 1245.974)"/><path class="b" d="M133.248,108.6h-.939l-.117.117-.117.822v.117l.822-.117.117-.117.235-.822m-1.057,5.048.117-.822c.235-1.174.352-1.409.47-2.113h0l-.939.117h-.117c-.117.587-.117.7-.235,1.409l-.117.47c-.235,1.057-.235,1.291-.47,2.231h.822Z" transform="translate(762.34 1245.696)"/><path class="b" d="M136.522,114.527h0l-.939.117h0l.352-1.526.235-.939c0-.235.117-.352.117-.587a.677.677,0,0,0-.7-.7,1.488,1.488,0,0,0-1.057.47c-.352,1.409-.352,1.879-.7,3.17H133l.352-1.409.117-.587a13.234,13.234,0,0,0,.352-2.113h0c.352,0,.47-.117.822-.117h0l-.117.47a2.227,2.227,0,0,1,1.409-.47,1.1,1.1,0,0,1,1.174,1.057,7.928,7.928,0,0,1-.235,1.644l-.117.587-.235.939" transform="translate(762.706 1245.992)"/><path class="b" d="M140.674,110.887l-.587,2.7c-.235.117-.352.235-.587.352h-.352a.936.936,0,0,1-.939-1.057,2.518,2.518,0,0,1,.47-1.409,2.379,2.379,0,0,1,1.879-.7l.117.117m1.057-.587h-1.174a2.744,2.744,0,0,0-2.818,1.291,2.937,2.937,0,0,0-.352,1.526,1.513,1.513,0,0,0,1.526,1.644,2.78,2.78,0,0,0,1.174-.352l-.117.47a1.405,1.405,0,0,1-1.409,1.291,1.328,1.328,0,0,1-1.291-.587h-.117l-.352.47v.117a1.621,1.621,0,0,0,.47.352,4.172,4.172,0,0,0,1.174.235,2.2,2.2,0,0,0,1.644-.587,5.722,5.722,0,0,0,.7-1.879l.235-1.057c.352-1.526.47-1.879.7-2.935Z" transform="translate(763.367 1245.992)"/><path class="b" d="M145.361,110.409l.117-.7h.235a2.317,2.317,0,0,1,1.057.117.786.786,0,0,1,.47.822,1.2,1.2,0,0,1-.7,1.174,2.753,2.753,0,0,1-1.409.235h-.235l.47-1.644m-.7,3.287.235-1.057h.47a2.917,2.917,0,0,0,2.583-.822,2.462,2.462,0,0,0,.47-1.291,1.515,1.515,0,0,0-.587-1.291,3.244,3.244,0,0,0-1.644-.235h-1.291c-.235,1.174-.352,1.526-.7,3.17l-.235.939-.352,1.644h.822v-.117Z" transform="translate(764.551 1245.765)"/><path class="b" d="M148.557,111.926c.117-.235.117-.47.352-.7a1.068,1.068,0,0,1,.939-.47c.7,0,.822.352.822.822v.352h-2.113m2.583,1.644h0a2.227,2.227,0,0,1-1.409.47c-.822,0-1.291-.352-1.291-1.057v-.352h2.935c0-.235.117-.47.117-.7a1.361,1.361,0,0,0-.47-1.174,1.983,1.983,0,0,0-1.174-.352,2.5,2.5,0,0,0-2.348,2.7,1.641,1.641,0,0,0,1.409,1.761h.587a3.126,3.126,0,0,0,1.409-.352h0Z" transform="translate(765.229 1246.009)"/><path class="b" d="M154.57,112.531c-.117.7-.47,1.644-1.409,1.644-.47,0-.822-.235-.822-.939,0-.352.117-2.348,1.526-2.348.352,0,.822.117.822.939,0,.235-.117.47-.117.7m.822.235a2,2,0,0,0,.117-.822,1.575,1.575,0,0,0-1.761-1.644c-1.761,0-2.348,1.761-2.348,2.818,0,1.174.587,1.644,1.761,1.644A2.281,2.281,0,0,0,155.392,112.766Z" transform="translate(765.908 1245.992)"/><path class="b" d="M157.131,111.374a1.4,1.4,0,0,1,.939-.47c.47,0,.939.235.939,1.057a2.115,2.115,0,0,1-2.231,2h-.352l.7-2.583m.117-1.057h0l-.939.117h-.117c-.117.47-.117.7-.235,1.409s-.352,1.409-.47,2.113l-.117.7-.47,1.878h.822a18.167,18.167,0,0,0,.352-2h.47a3.246,3.246,0,0,0,2.583-1.057,2.805,2.805,0,0,0,.587-1.644,1.513,1.513,0,0,0-1.526-1.644,3.445,3.445,0,0,0-1.174.352Z" transform="translate(766.518 1245.974)"/><path class="b" d="M161.126,112.04c-.352,1.409-.352,1.644-.587,2.818H159.6l.352-1.761.47-1.878a21.668,21.668,0,0,0,.47-2.7h0l.939-.117h0l-.47,2.231-.235,1.409" transform="translate(767.336 1245.661)"/><path class="b" d="M162.657,111.926c.117-.235.117-.47.352-.7a1.144,1.144,0,0,1,1.057-.47c.7,0,.822.352.822.822v.352h-2.231m2.583,1.644h0a2.227,2.227,0,0,1-1.409.47c-.822,0-1.291-.352-1.291-1.057v-.352h2.935c0-.235.117-.47.117-.7a1.361,1.361,0,0,0-.47-1.174,1.983,1.983,0,0,0-1.174-.352,2.5,2.5,0,0,0-2.348,2.7,1.641,1.641,0,0,0,1.409,1.761h.587a3.126,3.126,0,0,0,1.409-.352h0Z" transform="translate(767.684 1246.009)"/><path class="b" d="M166.357,114.039l-.117.117h-.822l-.117-.117.235-.822h0l.939-.117.117.117-.235.822" transform="translate(768.328 1246.479)"/><path class="b" d="M173.692,114.553h0a3.146,3.146,0,0,1-1.526.352,2.276,2.276,0,0,1-2.466-2.466,3.494,3.494,0,0,1,3.4-3.64,2.245,2.245,0,0,1,1.644.47v.117l-.235.7H174.4l-.235-.235a1.578,1.578,0,0,0-1.057-.235,2.722,2.722,0,0,0-2.466,2.818A1.662,1.662,0,0,0,172.4,114.2a2.473,2.473,0,0,0,1.526-.587h0l-.235.939" transform="translate(769.094 1245.731)"/><path class="b" d="M177.54,114.805h0l-.939.117h0l.235-.822.235-.822c.117-.352.117-.7.235-1.057v-.352c0-.352-.235-.587-.7-.587h-.352a1.892,1.892,0,0,0-.822.47l-.352,1.526-.352,1.761H173.9l.7-2.935a19.126,19.126,0,0,0,.47-2.113,10.171,10.171,0,0,1,.235-1.174h.117l.939-.117v.117c-.235.939-.352,1.291-.587,2.583a2.517,2.517,0,0,1,1.409-.47c.47,0,1.174.117,1.174,1.057a4.044,4.044,0,0,1-.117,1.057l-.235,1.057-.47.7" transform="translate(769.825 1245.713)"/><path class="b" d="M181.018,113.587c-.117.117-.235.117-.235.235a1.669,1.669,0,0,1-.7.235.95.95,0,0,1-.939-1.057,2.371,2.371,0,0,1,.939-1.761,2.135,2.135,0,0,1,1.291-.352h.352l-.7,2.7m1.644-3.17h0l-1.174-.117a2.894,2.894,0,0,0-2.583.939,3.305,3.305,0,0,0-.7,1.761,1.513,1.513,0,0,0,1.526,1.644,1.558,1.558,0,0,0,1.174-.47v.352h.822l.117-.117c.117-.939.235-1.291.47-2.583Z" transform="translate(770.573 1245.992)"/><path class="b" d="M185.922,114.527h0l-.939.117h0l.352-1.526.235-.939c0-.235.117-.352.117-.587a.677.677,0,0,0-.7-.7,1.488,1.488,0,0,0-1.057.47c-.352,1.409-.352,1.879-.7,3.17H182.4l.352-1.409.117-.587a13.234,13.234,0,0,0,.352-2.113h0c.352,0,.47-.117.822-.117h0l-.117.47a2.227,2.227,0,0,1,1.409-.47,1.1,1.1,0,0,1,1.174,1.057,7.928,7.928,0,0,1-.235,1.644l-.117.587-.235.939" transform="translate(771.304 1245.992)"/><path class="b" d="M190.209,110.887l-.587,2.7c-.235.117-.352.235-.587.352h-.352a.936.936,0,0,1-.939-1.057,2.518,2.518,0,0,1,.47-1.409,2.379,2.379,0,0,1,1.879-.7l.117.117m.939-.587h-1.174a3,3,0,0,0-2.935,1.291,2.937,2.937,0,0,0-.352,1.526,1.513,1.513,0,0,0,1.526,1.644,2.78,2.78,0,0,0,1.174-.352l-.117.47a1.405,1.405,0,0,1-1.409,1.291,1.328,1.328,0,0,1-1.291-.587h-.117l-.352.47v.117a1.621,1.621,0,0,0,.47.352,4.221,4.221,0,0,0,1.291.235,2.2,2.2,0,0,0,1.644-.587,5.722,5.722,0,0,0,.7-1.879l.235-1.057a25.18,25.18,0,0,0,.7-2.935Z" transform="translate(771.948 1245.992)"/><path class="b" d="M191.639,114.84h0l-.939.117h0a12.468,12.468,0,0,0,.47-2.231l.117-.47c.117-.7.117-.822.235-1.409h0l.939-.117h0c-.235.822-.235,1.057-.47,2.113l-.235.822-.117,1.174m1.291-5.4h0l-.939.235v-.117l.117-.822.117-.117.822-.117.117.117Z" transform="translate(772.749 1245.678)"/><path class="b" d="M196.322,114.527h0l-.939.117h0l.352-1.526.235-.939c0-.235.117-.352.117-.587a.677.677,0,0,0-.7-.7,1.488,1.488,0,0,0-1.057.47c-.352,1.409-.352,1.879-.7,3.17H192.8l.352-1.409.117-.587a13.23,13.23,0,0,0,.352-2.113h0c.352,0,.47-.117.822-.117h0l-.117.47a2.227,2.227,0,0,1,1.409-.47,1.1,1.1,0,0,1,1.174,1.057,7.928,7.928,0,0,1-.235,1.644l-.117.587-.235.939" transform="translate(773.115 1245.992)"/><path class="b" d="M200.492,110.887l-.587,2.7c-.235.117-.352.235-.587.352h-.352a.936.936,0,0,1-.939-1.057,2.518,2.518,0,0,1,.47-1.409,2.379,2.379,0,0,1,1.879-.7l.117.117m1.057-.587h-1.174a3,3,0,0,0-2.935,1.291,2.937,2.937,0,0,0-.352,1.526,1.513,1.513,0,0,0,1.526,1.644,2.78,2.78,0,0,0,1.174-.352l-.117.47a1.405,1.405,0,0,1-1.409,1.291,1.328,1.328,0,0,1-1.291-.587h-.117l-.352.47v.117a1.622,1.622,0,0,0,.47.352,4.221,4.221,0,0,0,1.291.235,2.2,2.2,0,0,0,1.644-.587,5.722,5.722,0,0,0,.7-1.879l.235-1.057c.352-1.526.47-1.879.7-2.935Z" transform="translate(773.759 1245.992)"/><path class="b" d="M206.6,114.77h-3.4l.47-1.761.47-1.878.47-2.231h.939l-.47,2-.352,1.526-.352,1.526h2.465l-.235.822" transform="translate(774.925 1245.748)"/><path class="b" d="M207.839,114.84h0l-.939.117h0a12.468,12.468,0,0,0,.47-2.231l.117-.47c.117-.7.117-.822.235-1.409h0l.939-.117h0c-.235.822-.235,1.057-.47,2.113l-.117.822-.235,1.174m1.174-5.4h0l-.939.235v-.117l.117-.822.117-.117.822-.117.117.117Z" transform="translate(775.569 1245.678)"/><path class="b" d="M211.466,113a3.861,3.861,0,0,0-.352.7,5.1,5.1,0,0,1-.47.822H209.47l-.117-1.644-.117-.939L209,110.3h.939l.117,1.291.117,1.057.117,1.291,1.174-2.231a15.674,15.674,0,0,0,.7-1.409h.939c-.117.235-.7,1.174-.822,1.409L211.466,113" transform="translate(775.934 1245.992)"/><path class="b" d="M213.474,111.926c.117-.235.117-.47.352-.7a1.068,1.068,0,0,1,.939-.47c.7,0,.822.352.822.822v.352h-2.113m2.466,1.644h0a2.518,2.518,0,0,1-1.409.47c-.822,0-1.291-.352-1.291-1.057v-.352h2.935c0-.235.117-.47.117-.7a1.361,1.361,0,0,0-.47-1.174,1.983,1.983,0,0,0-1.174-.352,2.5,2.5,0,0,0-2.348,2.7,1.641,1.641,0,0,0,1.409,1.761h.587a3.126,3.126,0,0,0,1.409-.352h0Z" transform="translate(776.509 1246.009)"/><path class="b" d="M219.5,111.257h0a1.753,1.753,0,0,0-1.174-.352c-.47,0-.822.235-.822.587s.352.47.7.7l.47.235a1.241,1.241,0,0,1,.7,1.057c0,.7-.587,1.409-1.761,1.409a2.109,2.109,0,0,1-1.526-.47v-.117l.235-.587h.117a1.565,1.565,0,0,0,1.174.47c.587,0,.939-.352.939-.7s-.235-.47-.7-.7l-.235-.117c-.352-.235-.939-.47-.939-1.057,0-.352.235-1.409,1.761-1.409a2.09,2.09,0,0,1,1.291.352v.117l-.235.587" transform="translate(777.17 1245.974)"/><path class="b" d="M220.357,114.039l-.117.117H219.3v-.117l.117-.822h.117l.939-.117v.117l-.117.822" transform="translate(777.727 1246.479)"/><path class="b" d="M146.56,124.957c.235-.939.117-1.409-.47-1.409-.7,0-.939.47-1.409,2.935s-.587,2.935.117,2.935.939-.47,1.291-2.231h3.287a5.8,5.8,0,0,1-1.644,3.4,4.928,4.928,0,0,1-3.4,1.057c-3.874,0-3.874-2.466-3.287-5.283s1.526-5.166,5.4-5.166c3.287,0,3.874,1.174,3.17,4.227h-3.287l.235-.47" transform="translate(764.056 1247.889)"/><path class="b" d="M152.567,126.366c.47-2.348.822-2.935,1.409-2.935s.7.587.117,2.935c-.47,2.348-.822,2.935-1.409,2.935s-.587-.587-.117-2.935m1.879-5.166c-3.874,0-4.814,2.466-5.4,5.166-.587,2.818-.7,5.283,3.287,5.283,3.874,0,4.814-2.466,5.518-5.283C158.32,123.666,158.438,121.2,154.446,121.2Z" transform="translate(765.446 1247.889)"/><path class="b" d="M167.871,124.84c.117-.7,0-.939-.47-.939s-.822.352-.939.939l-1.409,6.575h-3.522l1.409-6.575c.117-.7,0-.939-.47-.939s-.822.352-.939.939l-1.409,6.575H156.6l2.113-9.98h3.4l-.235,1.174h0a3.562,3.562,0,0,1,2.935-1.409,2.01,2.01,0,0,1,2.113,1.409,3.562,3.562,0,0,1,2.935-1.409c1.291,0,2.231.7,1.879,2.466L170.1,131.3H166.58l1.291-6.457" transform="translate(766.813 1247.889)"/><path class="b" d="M180.771,124.84c.117-.7,0-.939-.47-.939s-.822.352-.939.939l-1.409,6.575h-3.522l1.409-6.575c.117-.7,0-.939-.47-.939s-.822.352-.939.939l-1.409,6.575H169.5l2.113-9.98h3.4l-.235,1.174h0a3.562,3.562,0,0,1,2.935-1.409,2.01,2.01,0,0,1,2.113,1.409,3.562,3.562,0,0,1,2.935-1.409c1.291,0,2.231.7,1.879,2.466L183,131.3H179.48l1.291-6.457" transform="translate(769.059 1247.889)"/><path class="b" d="M187.425,130.188h0a3.722,3.722,0,0,1-2.935,1.409c-1.291,0-2.231-.7-1.879-2.466l1.644-7.631h3.522l-1.409,6.575c-.117.7,0,.939.47.939s.822-.352.939-.939l1.409-6.575h3.522l-2.113,9.98h-3.4l.235-1.292" transform="translate(771.328 1247.941)"/><path class="b" d="M197.04,124.84c.117-.7,0-.939-.47-.939s-.822.352-.939.939l-1.409,6.575H190.7l2.113-9.98h3.4l-.235,1.174h0a3.562,3.562,0,0,1,2.935-1.409c1.292,0,2.231.7,1.879,2.466l-1.644,7.631h-3.522l1.409-6.457" transform="translate(772.749 1247.889)"/><path class="b" d="M201.413,121.887h3.522l-2.113,9.98H199.3l2.113-9.98m.7-3.287h3.522l-.587,2.583h-3.522Z" transform="translate(774.246 1247.437)"/><path class="b" d="M206.847,118.9h3.522l-.587,2.935h1.291l-.47,2.348h-1.291l-.939,4.461c-.117.587-.117.939.47.939h.587l-.47,2.348c-.352,0-1.291.117-1.761.117-2,0-3.053-.117-2.583-2.348l1.174-5.4h-1.057l.47-2.348h1.057l.587-3.053" transform="translate(775.152 1247.489)"/><path class="b" d="M210.778,121.4h3.64l-.352,5.988h0l2.113-5.988H219.7l-4.7,9.862c-1.174,2.348-1.761,3.287-4.461,3.287-.822,0-1.291-.117-1.644-.117l.47-2.348h.939a.993.993,0,0,0,.7-.235,2.566,2.566,0,0,0,.352-.587l-.587-9.862" transform="translate(775.917 1247.924)"/><path class="b" d="M77.14,165.178l.235-.7h.235a3.271,3.271,0,0,1,1.174.117.69.69,0,0,1,.47.7,1.593,1.593,0,0,1-.822,1.291,2.978,2.978,0,0,1-1.409.235h-.235l.352-1.644m-1.057,3.874.235-.939h.47c1.409,0,2.935,0,3.874-1.174a2.805,2.805,0,0,0,.587-1.644,1.937,1.937,0,0,0-1.057-1.761,6.918,6.918,0,0,0-2.466-.235H75.613l-.117.117c-.352,1.526-.47,2-1.057,3.992l-.352,1.174-.587,2,.117.117h2l.117-.117Z" transform="translate(752.349 1255.217)"/><path class="b" d="M90.918,164.374v2.935H89.157l1.761-2.935m1.644-1.174H89.979l-.117.117c-.587,1.057-.939,1.526-1.526,2.466l-1.409,2.231a13.5,13.5,0,0,1-1.526,2.348v.117h1.878l.117-.117.587-1.174.352-.7H90.8v2l.117.117h2l.117-.117a50.525,50.525,0,0,0-.47-7.279Z" transform="translate(754.42 1255.2)"/><path class="b" d="M102.9,165.2l.235-.587h.352c.7,0,1.409,0,1.409.822a1.052,1.052,0,0,1-.822,1.057,4.816,4.816,0,0,1-1.291.117h-.235l.352-1.409m-1.526-1.878h0c-.352,1.526-.47,2-.939,3.757l-.352,1.291-.587,2.113.117.117h2l.117-.117a14.054,14.054,0,0,1,.7-2.818h.587l.7,1.761.352,1.057.117.117,2-.117.117-.117-.587-1.291-.822-1.761a3.13,3.13,0,0,0,1.644-.822,2.473,2.473,0,0,0,.587-1.526,1.533,1.533,0,0,0-.7-1.409,5.01,5.01,0,0,0-2.583-.352Z" transform="translate(756.874 1255.2)"/><path class="b" d="M115.7,170.479l-.117.117h-2l-.117-.117.47-1.409.587-2.113.587-2.348H113v-.117l.352-1.174h4.109l2-.117.117.117-.352,1.174-.117.117h-1.878l-.47,1.761-.587,2.113-.47,2" transform="translate(759.224 1255.2)"/><path class="b" d="M131.362,170.479h0l-1.644.117H129.6l-.587-1.174-1.879-3.757-.7,3.287-.352,1.644h-1.761l-.117-.117.7-2.348.47-1.879c.352-1.526.47-1.879.7-2.935l.117-.117h1.879l.587,1.291.822,1.526c.587,1.057.587,1.174.939,1.761l.7-2.7.47-1.879h1.761l.117.117-.7,2.818-.352,1.409-1.057,2.935" transform="translate(761.174 1255.2)"/><path class="b" d="M144,170.479h0l-3.17.117H138.6v-.117l.587-2.113.47-1.644c.47-1.644.47-2,.822-3.4l.117-.117h5.048l.117.117-.352,1.174-.117.117h-2.935l-.47,1.644h2.818v.117l-.352,1.174h-2.935l-.235.7-.352,1.174h3.287l.117.117-.235.939" transform="translate(763.68 1255.2)"/><path class="b" d="M154.7,165.2l.235-.587h.352c.7,0,1.409,0,1.409.822a1.052,1.052,0,0,1-.822,1.057,4.816,4.816,0,0,1-1.291.117h-.235l.352-1.409m-1.526-1.878h0c-.352,1.526-.47,2-.939,3.757l-.352,1.291-.587,2.113.117.117h2l.117-.117a14.052,14.052,0,0,1,.7-2.818h.587l.7,1.761.352,1.057.117.117,2-.117v-.117l-.587-1.291-.822-1.761a3.13,3.13,0,0,0,1.644-.822,2.473,2.473,0,0,0,.587-1.526,1.533,1.533,0,0,0-.7-1.409,5.01,5.01,0,0,0-2.583-.352Z" transform="translate(765.891 1255.2)"/><path class="b" d="M164.3,170.01l.352-1.292h.117a3.21,3.21,0,0,0,.587.47,2.662,2.662,0,0,0,1.409.352c.822,0,1.526-.352,1.526-.939,0-.47-.47-.822-1.057-1.057l-.352-.235c-.587-.352-1.526-.7-1.526-1.761a2.1,2.1,0,0,1,.587-1.526,3.8,3.8,0,0,1,2.583-.822,4.586,4.586,0,0,1,2.466.587v.117l-.47,1.291h-.117l-.352-.352a2.5,2.5,0,0,0-1.409-.352c-.7,0-1.291.352-1.291.822s.352.7,1.174,1.057l.235.117c.587.352,1.526.822,1.526,1.879,0,1.291-1.057,2.466-3.522,2.466A9.063,9.063,0,0,1,165,170.6a3.722,3.722,0,0,0-.7-.587h0" transform="translate(768.154 1255.2)"/><path class="b" d="M185.018,166.722a15.637,15.637,0,0,0-.587,2.231c-.117.47-.235,1.057-.352,1.526l-.117.117h-2v-.117l.822-3.17h-3.053l-.822,3.17-.117.117h-2v-.117l.352-1.291.587-2.231c.352-1.409.47-1.879.939-3.64l.117-.117h2l.117.117-.47,1.644-.352,1.174h3.053l.235-.939.352-1.644.117-.117h2.113l.117.117-.47,1.644-.587,1.526" transform="translate(770.33 1255.2)"/><path class="b" d="M193.413,170.479h0l-2.113.117v-.117l.352-1.409.587-2.231a21.593,21.593,0,0,0,.822-3.522l.117-.117h2.113v.117c-.47,1.761-.587,2.231-1.174,4.109l-.352,1.409-.352,1.644" transform="translate(772.853 1255.2)"/><path class="b" d="M204.84,165.178l.235-.7h.352a3.271,3.271,0,0,1,1.174.117.869.869,0,0,1,.47.7,1.593,1.593,0,0,1-.822,1.291,2.978,2.978,0,0,1-1.409.235H204.6l.235-1.644m-1.057,3.874.235-.939h.47c1.409,0,2.935,0,3.874-1.174a2.805,2.805,0,0,0,.587-1.644,1.937,1.937,0,0,0-1.057-1.761,6.918,6.918,0,0,0-2.466-.235h-2.113l-.117.117c-.352,1.526-.47,2-1.057,3.992l-.352,1.174-.587,2,.117.117h2l.117-.117Z" transform="translate(774.577 1255.217)"/><path class="b" d="M133.018,142.777h-6.927l11.623-15.38-4.7,15.38m.7-22.777c-2,2.583-20.076,27.59-40.623,45.436h15.615l5.4-7.044,7.749-10.214h9.393l-5.4,17.259H137.6c4.461-20.194,5.753-25.947,10.449-45.436Z" transform="translate(755.76 1247.68)"/><path class="b" d="M148.955,148.68a7.192,7.192,0,0,0,.235-3.757,1.428,1.428,0,0,0-1.526-1.057c-1.761,0-2.7,1.526-3.992,7.279s-1.057,7.279.822,7.279c1.409,0,2.466-.939,3.17-3.874l.352-1.526h7.162c-.822,3.64-1.879,6.223-3.874,7.984-1.878,1.644-4.579,2.466-7.866,2.466-6.105,0-9.862-1.879-7.749-11.975,2.466-11.154,7.514-12.8,13.5-12.8,7.044,0,8.218,3.992,6.927,9.862h-7.162" transform="translate(763.07 1250.935)"/><path class="b" d="M155.518,140.427h2.7l1.526-6.927h7.984l-1.526,6.927h3.17L168.2,145.71h-3.17l-2.466,11.154c-.352,1.291.235,1.879,1.526,1.879h1.292l-1.174,5.166c-1.526.117-3.053.235-4.344.235-4.814,0-6.575-.822-5.518-5.988l2.7-12.445h-2.7l1.174-5.283" transform="translate(766.369 1250.03)"/><path class="b" d="M169.848,140.514h7.984L172.784,164H164.8l5.048-23.481M171.492,133h7.984l-1.291,5.87H170.2Z" transform="translate(768.241 1249.943)"/><path class="b" d="M183.489,151.228c1.292-5.988,2-7.279,3.757-7.279s1.879,1.409.587,7.279-2,7.279-3.757,7.279-1.878-1.409-.587-7.279m12.445,0c1.526-6.81,1.879-12.328-7.514-12.328-9.04,0-11.506,6.105-12.8,12.328-1.526,6.81-1.879,12.328,7.514,12.328C192.059,163.555,194.525,157.45,195.934,151.228Z" transform="translate(769.981 1250.97)"/><path class="b" d="M197.348,139.5H205.1l-.587,2.818h.117A7.423,7.423,0,0,1,211.2,138.8c3.522,0,5.988,1.291,4.814,6.34l-3.874,17.728h-7.984l3.4-15.5c.47-2,.117-2.818-1.292-2.818s-2.113.822-2.583,2.818l-3.4,15.5H192.3l5.048-23.364" transform="translate(773.028 1250.953)"/><path class="b" d="M212.948,160.1a2.353,2.353,0,0,1-2.348-2.348,2.348,2.348,0,0,1,4.7,0,2.355,2.355,0,0,1-2.348,2.348m0-4.461a2.113,2.113,0,1,0,2.113,2.113A2.1,2.1,0,0,0,212.948,155.635Zm-.117.587a1.271,1.271,0,0,1,.7.117.73.73,0,0,1,.47.7.759.759,0,0,1-.587.7c.235.117.352.117.352.587.117.352.117.7.235.939h-.587a1.271,1.271,0,0,1-.117-.7c-.117-.587-.117-.587-.587-.7H212.6v1.291h-.587V156.1h.822Zm-.352,1.174h.352c.235,0,.587,0,.587-.352,0-.117,0-.235-.235-.352h-.7v.7Z" transform="translate(776.213 1253.842)"/><path class="a" d="M77.24,175.8c.47,1.761.587,2.231,1.644,5.753v.117H77.474l-.352-1.526H75.244l-.352,1.526H73.6c1.174-3.522,1.526-4.344,1.879-5.753h0a8.884,8.884,0,0,1,1.761-.117h0m-.47,3.287-.352-1.291-.235-1.057-.235.939-.47,1.409Z" transform="translate(752.366 1257.393)"/><path class="a" d="M84.74,175.8v1.409a6.7,6.7,0,0,0,.117,1.526c0,.939.117,1.879.117,2.818H83.566v-4.814L83.1,178.5l-.352,1.174-.47,1.761H81.1l-.822-1.879-.352-1.174-.352-1.409v4.7H78.4c.235-2.7.235-3.287.352-5.753h2l.47,1.644.235.939.352,1.526.352-1.409.352-1.174.352-1.291h0a3.378,3.378,0,0,1,1.878-.352h0" transform="translate(753.202 1257.393)"/><path class="a" d="M88.674,180.6v1.057H84.917v-2.466A19.354,19.354,0,0,0,84.8,175.9h3.64v.939H86.326v1.291h2v.939H86.444v1.409a13.479,13.479,0,0,0,2.231.117h0" transform="translate(754.316 1257.411)"/><path class="a" d="M90.009,179.44a14.209,14.209,0,0,0,.117,2.231H88.717v-1.879A32.259,32.259,0,0,0,88.6,175.8h1.644a4.037,4.037,0,0,1,1.879.235,1.6,1.6,0,0,1,.822,1.526,1.454,1.454,0,0,1-1.174,1.526,8.52,8.52,0,0,1,.587,1.057,14.8,14.8,0,0,0,1.057,1.526v.117H91.77c-.587-1.057-.7-1.291-1.174-2.231l-.587-.117m0-1.057a2.018,2.018,0,0,0,.939-.117.7.7,0,0,0,.352-.7c0-.7-.587-.7-.939-.7h-.352Z" transform="translate(754.977 1257.393)"/><path class="a" d="M94.544,175.8v5.753H93.017V179.2a22.023,22.023,0,0,0-.117-3.4h1.644" transform="translate(755.726 1257.393)"/><path class="a" d="M99.344,180.279v1.174h0a3.372,3.372,0,0,1-1.409.235,2.994,2.994,0,0,1,0-5.988,4.165,4.165,0,0,1,1.526.352h0l-.117,1.174h-.117a2.306,2.306,0,0,0-1.174-.352c-1.291,0-1.644,1.292-1.644,2a1.675,1.675,0,0,0,1.644,1.879,5.084,5.084,0,0,0,1.291-.47h0" transform="translate(756.091 1257.376)"/><path class="a" d="M102.422,175.8c.47,1.761.587,2.231,1.644,5.753v.117h-1.409l-.352-1.526h-1.761l-.352,1.526H98.9c1.174-3.522,1.526-4.344,1.879-5.753h0a7.218,7.218,0,0,1,1.644-.117h0m-.47,3.287L101.6,177.8l-.235-1.057-.235.939-.47,1.409Z" transform="translate(756.77 1257.393)"/><path class="a" d="M104.579,175.5a6.922,6.922,0,0,1-.47.939c-.117.352-.352.7-.47,1.057H102.7a18.11,18.11,0,0,0,.587-2h1.291" transform="translate(757.431 1257.341)"/><path class="a" d="M107.218,178.218a2.566,2.566,0,0,1,.587.352,1.5,1.5,0,0,1,.587,1.291,1.874,1.874,0,0,1-.939,1.644,3.49,3.49,0,0,1-1.409.235,3.142,3.142,0,0,1-1.291-.235.41.41,0,0,1-.235-.117V180.1h.117a1.985,1.985,0,0,0,1.409.47c.7,0,.939-.352.939-.7,0-.47-.47-.587-1.057-.939l-.235-.117a1.8,1.8,0,0,1-1.291-1.644c0-.939.587-1.761,2.113-1.761a2.421,2.421,0,0,1,1.526.352h0l-.117,1.057H107.8a2.137,2.137,0,0,0-1.291-.47c-.587,0-.822.352-.822.587,0,.352.352.47,1.057.822l.47.47" transform="translate(757.727 1257.323)"/><path class="a" d="M112.061,175.8a4.279,4.279,0,0,1,1.761.235,1.7,1.7,0,0,1,.822,1.526,1.877,1.877,0,0,1-.47,1.291,3.093,3.093,0,0,1-2.466.7v2H110.3V175.8h1.761m-.352,2.818a2.605,2.605,0,0,0,1.057-.117.869.869,0,0,0,.47-.822c0-.47-.235-.822-.939-.822h-.587Z" transform="translate(758.754 1257.393)"/><path class="a" d="M119.7,178.753a3.01,3.01,0,0,1-.939,2.466,3.163,3.163,0,0,1-1.761.587,2.7,2.7,0,0,1-1.878-.7,2.9,2.9,0,0,1-.822-2.348,2,2,0,0,1,.117-.822,2.683,2.683,0,0,1,1.291-1.879,3.25,3.25,0,0,1,1.526-.352,2.165,2.165,0,0,1,1.526.47.917.917,0,0,1,.47.47,6,6,0,0,1,.47,2.113m-2.818-2a1.277,1.277,0,0,0-.587.117c-.352.235-.587.7-.587,1.761,0,.7.117,2.113,1.174,2.113.939,0,1.174-.939,1.174-2.113a2.292,2.292,0,0,0-.117-.822,1.669,1.669,0,0,0-.235-.7A1.066,1.066,0,0,0,116.883,176.757Z" transform="translate(759.451 1257.376)"/><path class="a" d="M122.087,181.653h-1.761c-.117-.352-.117-.7-.235-1.057-.235-1.057-.822-2.818-1.291-4.7h1.526a10.993,10.993,0,0,0,.47,1.878l.117.7.47,2,.352-1.526.235-1.057c.235-.939.235-1.174.47-2h1.291c-1.057,3.757-1.174,4.227-1.644,5.753h0" transform="translate(760.234 1257.41)"/><path class="a" d="M127.074,180.6v1.057h-3.757v-2.466a19.354,19.354,0,0,0-.117-3.287h3.64v.939h-2.113v1.291h2v.939h-1.878v1.409a13.479,13.479,0,0,0,2.231.117h0" transform="translate(761 1257.411)"/><path class="a" d="M128.409,179.44a14.209,14.209,0,0,0,.117,2.231h-1.409v-1.879A32.254,32.254,0,0,0,127,175.8h1.644a4.037,4.037,0,0,1,1.879.235,1.6,1.6,0,0,1,.822,1.526,1.454,1.454,0,0,1-1.174,1.526,8.52,8.52,0,0,1,.587,1.057,14.806,14.806,0,0,0,1.057,1.526v.117H130.17c-.587-1.057-.7-1.291-1.174-2.231l-.587-.117m0-1.057a2.018,2.018,0,0,0,.939-.117.7.7,0,0,0,.352-.7c0-.7-.587-.7-.939-.7h-.352Z" transform="translate(761.661 1257.393)"/><path class="a" d="M133.6,176.839v4.814h-1.409a31.334,31.334,0,0,0,0-4.7H130.9V175.9h4.109v1.057h0l-1.409-.117" transform="translate(762.34 1257.41)"/><path class="a" d="M137.687,181.653h-1.409V179.3a2.567,2.567,0,0,0-.352-.587c-.235-.352-1.291-2.231-1.526-2.7V175.9h1.526c.235.587.352.822.47,1.057a10.913,10.913,0,0,1,.587,1.174l1.057-2.113h1.291l-1.879,3.287a7.239,7.239,0,0,1,.235,2.348h0" transform="translate(762.949 1257.41)"/><path class="a" d="M142.326,179.3a14.969,14.969,0,0,0,.117,2.348h-1.526v-2.818a20.009,20.009,0,0,0-.117-2.935h3.64l-.117,1.057h-2v1.409l1.879-.117h0l-.117.939h-1.761" transform="translate(764.063 1257.41)"/><path class="a" d="M145.944,175.8v5.753h-1.526V179.2a22.023,22.023,0,0,0-.117-3.4h1.644" transform="translate(764.672 1257.393)"/><path class="a" d="M151.348,180.261v1.291a4.678,4.678,0,0,1-2,.352c-.47,0-.822-.117-1.057-.117a2.263,2.263,0,0,1-1.409-.939,3.248,3.248,0,0,1-.587-1.878,3.313,3.313,0,0,1,.47-1.761,2.955,2.955,0,0,1,2.583-1.409,5.056,5.056,0,0,1,1.761.352h0a3.62,3.62,0,0,0-.117,1.174h-.117a2.227,2.227,0,0,0-1.409-.47c-1.057,0-1.761.7-1.761,2,0,.587.235,1.879,1.526,1.879a1.058,1.058,0,0,0,.587-.117,9.491,9.491,0,0,0-.117-1.761h1.409v1.409" transform="translate(765.021 1257.393)"/><path class="a" d="M156.214,175.817v1.644c0,1.409,0,2.818.117,4.109H154.8v-2.583h-1.879a15.756,15.756,0,0,0,.117,2.466h-1.526v-1.879a31.107,31.107,0,0,0-.117-3.874h1.526v2.231H154.8a12.761,12.761,0,0,0-.117-2.113h1.526" transform="translate(765.908 1257.376)"/><path class="a" d="M158.6,176.839v4.814h-1.409a31.338,31.338,0,0,0,0-4.7H155.9V175.9h4.109v1.057h0l-1.409-.117" transform="translate(766.692 1257.41)"/><path class="a" d="M161.244,175.8v5.753h-1.526V179.2a22.017,22.017,0,0,0-.117-3.4h1.644" transform="translate(767.336 1257.393)"/><path class="a" d="M166.814,175.8v5.87h-1.057l-.7-1.057-.822-1.174a17.767,17.767,0,0,1-1.057-1.644v2.113l.117,1.761h-1.174V179.2a31.878,31.878,0,0,0-.117-3.287h1.409c.235.352.352.47.939,1.409l.7,1.057a7.962,7.962,0,0,1,.7,1.057V175.8h1.057" transform="translate(767.753 1257.393)"/><path class="a" d="M171.748,180.261v1.291a4.678,4.678,0,0,1-2,.352c-.47,0-.822-.117-1.057-.117a2.263,2.263,0,0,1-1.409-.939,3.248,3.248,0,0,1-.587-1.878,3.313,3.313,0,0,1,.47-1.761,2.955,2.955,0,0,1,2.583-1.409,5.056,5.056,0,0,1,1.761.352h0a3.62,3.62,0,0,0-.117,1.174h-.117a2.227,2.227,0,0,0-1.409-.47c-1.057,0-1.761.7-1.761,2,0,.587.235,1.879,1.526,1.879a1.058,1.058,0,0,0,.587-.117,9.491,9.491,0,0,0-.117-1.761h1.409v1.409" transform="translate(768.571 1257.393)"/><path class="a" d="M178.514,175.8v5.87h-1.057l-.7-1.057-.822-1.174a17.774,17.774,0,0,1-1.057-1.644v2.113l.117,1.761h-1.174V179.2a31.87,31.87,0,0,0-.117-3.287h1.409c.235.352.352.47.939,1.409l.7,1.057a7.968,7.968,0,0,1,.7,1.057V175.8h1.057" transform="translate(769.79 1257.393)"/><path class="a" d="M182.474,180.6v1.057h-3.757v-2.466a19.354,19.354,0,0,0-.117-3.287h3.64v.939h-2.113v1.291h2v.939h-1.878v1.409a13.479,13.479,0,0,0,2.231.117h0" transform="translate(770.643 1257.411)"/><path class="a" d="M184.7,176.839v4.814h-1.409a31.334,31.334,0,0,0,0-4.7H182V175.9h4.109v1.057h0l-1.409-.117" transform="translate(771.235 1257.41)"/><path class="a" d="M191.94,181.67h-2l-.117-1.174-.235-1.291c-.117-.939-.117-1.057-.235-1.879L189,179.087l-.235,1.526-.117,1.057h-1.879c-.47-2.348-.587-3.053-1.174-5.753h0a6.2,6.2,0,0,0,1.409-.117h0l.235,1.644.235,1.174c.117,1.057.235,1.291.352,2l.235-1.174.352-1.644.352-1.879h1.644l.235,1.291.235,1.409c.117.939.235,1.291.352,2.113l.235-1.409.235-1.291a15.833,15.833,0,0,0,.352-2.113h1.291c-.939,3.522-1.057,4.227-1.409,5.753h0" transform="translate(771.861 1257.393)"/><path class="a" d="M197.5,178.753a3.01,3.01,0,0,1-.939,2.466,3.163,3.163,0,0,1-1.761.587,2.7,2.7,0,0,1-1.879-.7,2.9,2.9,0,0,1-.822-2.348,2,2,0,0,1,.117-.822,2.683,2.683,0,0,1,1.291-1.879,3.25,3.25,0,0,1,1.526-.352,2.165,2.165,0,0,1,1.526.47.917.917,0,0,1,.47.47,4.074,4.074,0,0,1,.47,2.113m-2.7-2a1.276,1.276,0,0,0-.587.117c-.352.235-.587.7-.587,1.761,0,.7.117,2.113,1.174,2.113.939,0,1.174-.939,1.174-2.113a2.292,2.292,0,0,0-.117-.822,1.669,1.669,0,0,0-.235-.7A1.066,1.066,0,0,0,194.8,176.757Z" transform="translate(772.993 1257.376)"/><path class="a" d="M198.709,179.44a14.2,14.2,0,0,0,.117,2.231h-1.409v-1.879a32.259,32.259,0,0,0-.117-3.992h1.644a4.037,4.037,0,0,1,1.878.235,1.6,1.6,0,0,1,.822,1.526,1.454,1.454,0,0,1-1.174,1.526,8.521,8.521,0,0,1,.587,1.057,14.81,14.81,0,0,0,1.057,1.526v.117H200.47c-.587-1.057-.7-1.291-1.174-2.231l-.587-.117m0-1.057a2.018,2.018,0,0,0,.939-.117.7.7,0,0,0,.352-.7c0-.7-.587-.7-.939-.7h-.352Z" transform="translate(773.898 1257.393)"/><path class="a" d="M206.379,175.911c-.587.7-.822,1.057-1.879,2.466a37.1,37.1,0,0,0,2.113,3.17v.117H204.97c-.352-.587-.47-.939-1.174-2.113a8.013,8.013,0,0,0-.587-.822,22.649,22.649,0,0,0,.117,2.935h-1.409v-2.113a26.861,26.861,0,0,0-.117-3.64h1.409v2.583c.587-.822.7-1.057,1.644-2.466h.117a1.911,1.911,0,0,1,1.409-.117h0" transform="translate(774.681 1257.399)"/><g transform="translate(826.201 1429.906)"><path class="a" d="M73.8,173.3H229.95M73.8,184.923H229.95" transform="translate(-73.8 -172.948)"/><path class="a" d="M229.95,185.21H73.8v-.587H229.95Zm0-11.623H73.8V173H229.95Z" transform="translate(-73.8 -173)"/></g></g></svg>