<svg xmlns="http://www.w3.org/2000/svg" viewBox="965.315 658 47.536 46.9"><defs><style>.a{fill:#fff;}</style></defs><g transform="translate(965.332 658)"><path class="a" d="M10.667,18.223a9.178,9.178,0,0,0,2.8-.448l5.354,5.393,5.88-5.88L19.35,11.9A9.1,9.1,0,0,0,10.687,0,9.09,9.09,0,0,0,6.754.9a.668.668,0,0,0-.35.467.626.626,0,0,0,.175.545l5.646,5.646a2.209,2.209,0,0,1,0,3.115,2.246,2.246,0,0,1-3.115,0L3.444,5.023A.626.626,0,0,0,2.9,4.848a.655.655,0,0,0-.467.35,9.082,9.082,0,0,0,8.235,13.025Zm0,0" transform="translate(-1.258 0)"/><path class="a" d="M135.34,124.59a9.178,9.178,0,0,0-2.8.448L126.6,119.1l-5.9,5.88,5.938,5.938a9.185,9.185,0,0,0,2.219,9.228,9.075,9.075,0,0,0,10.357,1.772.668.668,0,0,0,.35-.467.626.626,0,0,0-.175-.545l-5.646-5.665a2.209,2.209,0,0,1,0-3.115,2.246,2.246,0,0,1,3.115,0l5.646,5.646a.626.626,0,0,0,.545.175.655.655,0,0,0,.467-.35,9.057,9.057,0,0,0-8.177-13.005Zm0,0" transform="translate(-97.215 -95.913)"/><path class="a" d="M110.6,16.334s.993.857,1.791.467c.915-.467,3.5,2.083,4.322,2.687h.019l-.448.448a1.493,1.493,0,0,0,0,2.142,1.528,1.528,0,0,0,2.142,0l3.563-3.563a1.514,1.514,0,0,0-2.142-2.142l-.584.6c-.487-.681-1.3-1.83-1.207-2.219.428-1.674-2.979-5.626-2.979-5.626-8.488-8.508-14.154-8.313-16.86-7.4-1.09.37-.876.6.234.8,8.177,1.421,9.189,6.249,7.807,8.118-.526.72.253,1.577.253,1.577l.311.311L93,26.341a2.124,2.124,0,0,1,.526.409l2.317,2.317a2.048,2.048,0,0,1,.389.526l13.823-13.8Zm0,0" transform="translate(-74.908 -1.051)"/><path class="a" d="M17.684,135.124a1.456,1.456,0,0,0-1.927-.078L.415,148.81A1.2,1.2,0,0,0,.356,150.6l4.186,4.186a1.215,1.215,0,0,0,1.791-.058L20.1,139.368a1.435,1.435,0,0,0-.078-1.927Zm0,0" transform="translate(0 -108.49)"/></g></svg>