<svg xmlns="http://www.w3.org/2000/svg" viewBox="2221 648.229 60.254 59.794"><defs><style>.a{fill:#fff;fill-rule:evenodd;}</style></defs><g transform="translate(2221 648.162)"><path class="a" d="M11.235,7.173a2.315,2.315,0,0,1,2.711-.184,17.861,17.861,0,0,1,2.5,1.769c1.31,1.172,2.366.873,3.952.391,3.377-1.011,5.032-2.964,5.055-6.433C25.48.694,26.721-.018,28.582.074c.551.023,1.1,0,1.677,0,4.434-.023,4.434-.023,5.192,4.457.666,3.86,5.928,6.043,9.19,3.906,1.31-.85,3.423-2.16,4.25-1.677a16.294,16.294,0,0,1,4.963,5.055c.391.551-.643,2.321-1.333,3.308-2.734,4.021-.9,8.8,3.745,9.81,1.333.3,3.515.9,3.676,1.677a16.126,16.126,0,0,1-.161,7.03c-.207.781-2.435,1.218-3.814,1.516a6.116,6.116,0,0,0-3.814,9.282c.8,1.218,1.953,3.285,1.47,4.044a16.81,16.81,0,0,1-5.1,4.917c-.6.391-2.435-.827-3.515-1.562a6.078,6.078,0,0,0-9.489,3.791c-.322,1.424-.919,3.676-1.792,3.906a18.292,18.292,0,0,1-6.8,0c-.574-.069-1.195-1.516-1.356-2.435-.85-4.342-2.137-5.974-6.272-6.548-1.1-.161-2.343,1.1-3.584,1.631-1.195.528-3.01,1.677-3.561,1.264a17.589,17.589,0,0,1-4.94-5.4c-.414-.758,1.1-2.711,1.953-4,1.861-2.8-.391-8.064-3.722-8.593C.919,34.744-1.309,30.7.8,26.725c.46-.827,1.884-1.379,2.964-1.585,3.285-.666,6.2-3.492,6.226-6.663a5.541,5.541,0,0,0-1.31-2.619c-2.619-3.745-2.665-3.745.643-7.007A22.6,22.6,0,0,1,11.235,7.173ZM47.812,30.195A17.177,17.177,0,0,0,30.581,12.6,17.174,17.174,0,0,0,13.05,29.62c-.069,9.925,7.4,17.691,17.094,17.737A17.151,17.151,0,0,0,47.812,30.195Z" transform="translate(0 0)"/><path class="a" d="M93.21,79.5A11.661,11.661,0,1,1,81.7,91.147,11.392,11.392,0,0,1,93.21,79.5Z" transform="translate(-62.928 -61.183)"/></g></svg>