<svg xmlns="http://www.w3.org/2000/svg" viewBox="1704.375 656.149 49.625 44.502"><defs><style>.a{fill:#fff;}</style></defs><g transform="translate(1704.443 656.149)"><path class="a" d="M33.7,9.6A6.693,6.693,0,0,1,38.542,7.5H63.661V2.282A2.357,2.357,0,0,0,61.292,0H26.982A2.272,2.272,0,0,0,24.7,2.3V12.56h6.236Zm0,0" transform="translate(-19.386)"/><path class="a" d="M48.99,55.182a1.858,1.858,0,0,0-.608-.478,2.256,2.256,0,0,0-1.13-.3H19.134a2.3,2.3,0,0,0-1.63.674l-.065.065-.934,1L14.114,58.7a1.311,1.311,0,0,1-.174.174,2.273,2.273,0,0,1-1.521.565H2.25a2.2,2.2,0,0,0-1.543.587l-.2.2a.945.945,0,0,0-.13.152,2.413,2.413,0,0,0-.435,1.673L2.641,81.757a6.167,6.167,0,0,0,4.933,5.215,6.426,6.426,0,0,0,1.13.109H40.6A6.149,6.149,0,0,0,46.535,82.5a5.784,5.784,0,0,0,.152-.847L48.23,68.22l1.3-11.234c0-.065.022-.13.022-.2a2.283,2.283,0,0,0-.565-1.608Zm0,0" transform="translate(0 -42.579)"/></g></svg>