<svg xmlns="http://www.w3.org/2000/svg" viewBox="620 649.445 40.5 60.71"><defs><style>.a{fill:#fff;}</style></defs><g transform="translate(620 649.445)"><path class="a" d="M37.836,12.3H33.476v-1.13A4.06,4.06,0,0,0,29.413,7.1H27.475a7.226,7.226,0,0,0-14.451.027H11.087A4.037,4.037,0,0,0,7.05,11.195v1.13H2.664A2.659,2.659,0,0,0,0,14.935V58.1a2.642,2.642,0,0,0,2.664,2.61H37.836A2.659,2.659,0,0,0,40.5,58.1V14.935A2.682,2.682,0,0,0,37.836,12.3Zm-17.6-8.5a3.447,3.447,0,0,1,3.445,3.337H16.819a3.424,3.424,0,0,1,3.418-3.337ZM37.163,57.507H3.337V15.527H7.05v2.96H33.476v-2.96h3.687v41.98Zm0,0" transform="translate(0 0)"/><path class="a" d="M90.952,89.3H82.422a2.343,2.343,0,1,0,0,4.682h8.531a2.343,2.343,0,1,0,0-4.682Zm0,0" transform="translate(-58.472 -65.269)"/><path class="a" d="M30.644,84.316l-1.83-1.426a1.086,1.086,0,0,0-1.48.135l-1.076,1.157a1.2,1.2,0,0,0-.269.834,1.164,1.164,0,0,0,.4.753l3.175,2.53a1.9,1.9,0,0,0,2.556-.161l5.6-5.6a1.444,1.444,0,0,0,.4-1.023,1.571,1.571,0,0,0-.4-1.023l-.646-.646a1.446,1.446,0,0,0-2.045,0Zm0,0" transform="translate(-18.992 -58.051)"/><path class="a" d="M90.952,129.7H82.422a2.343,2.343,0,1,0,0,4.682h8.531a2.343,2.343,0,1,0,0-4.682Zm0,0" transform="translate(-58.472 -94.797)"/><path class="a" d="M30.717,124.789l-1.83-1.426a1.086,1.086,0,0,0-1.48.135l-1.05,1.157a1.12,1.12,0,0,0-.269.834,1.228,1.228,0,0,0,.4.78l3.175,2.53a1.931,1.931,0,0,0,2.556-.161l5.6-5.6a1.43,1.43,0,0,0,0-2.045l-.646-.646a1.446,1.446,0,0,0-2.045,0Zm0,0" transform="translate(-19.065 -87.653)"/><path class="a" d="M90.952,168.7H82.422a2.343,2.343,0,1,0,0,4.682h8.531a2.343,2.343,0,1,0,0-4.682Zm0,0" transform="translate(-58.472 -123.302)"/><path class="a" d="M30.717,163.844l-1.83-1.426a1.086,1.086,0,0,0-1.48.135l-1.05,1.157a1.12,1.12,0,0,0-.269.834,1.228,1.228,0,0,0,.4.78l3.175,2.5a1.96,1.96,0,0,0,2.556-.135l5.6-5.6a1.446,1.446,0,0,0,0-2.045l-.646-.646a1.5,1.5,0,0,0-2.045,0Zm0,0" transform="translate(-19.065 -116.213)"/></g></svg>