<svg xmlns="http://www.w3.org/2000/svg" viewBox="265.093 658 53.434 48.1"><defs><style>.a{fill:#fff;fill-rule:evenodd;}</style></defs><g transform="translate(265.107 658)"><path class="a" d="M8.879,10.636h-7.8c-.748,0-.952-.159-1.043-.907A8.8,8.8,0,0,1,6.453.363,9.117,9.117,0,0,1,8.811.023Q23.337-.011,37.885,0a8.212,8.212,0,0,1,8.209,6.645,9.46,9.46,0,0,1,.181,1.61V35.2c0,.113-.023.227-.023.363H42.76V8.209a4.622,4.622,0,0,0-3.4-4.513,6.2,6.2,0,0,0-1.587-.181H10.217a1.18,1.18,0,0,0-.612.113c.068.023.113.045.181.068a3.534,3.534,0,0,1,2.631,3.56V38.87a5.811,5.811,0,0,0,5.6,5.669c3.152.068,5.533-1.383,6.509-4.037a8.671,8.671,0,0,0,.408-2c.068-.862.249-1.089,1.111-1.089H52.33c.748,0,.952.159,1.043.93a8.844,8.844,0,0,1-6.486,9.389,10.515,10.515,0,0,1-2.517.34c-8.64.023-17.3.023-25.944.023a9.367,9.367,0,0,1-9.479-9.5V11.543A3.786,3.786,0,0,1,8.879,10.636Z" transform="translate(0)"/><path class="a" d="M82.166,56.746H71.371c-.726,0-.771-.045-.771-.884,0-.816.045-.862.794-.862H92.938c.249,0,.7.159.726.295a3.6,3.6,0,0,1-.091,1.293c-.023.091-.386.136-.612.136C89.377,56.746,85.772,56.746,82.166,56.746Z" transform="translate(-54.6 -42.527)"/><path class="a" d="M82.166,70.623H92.96c.7,0,.748.045.748.816,0,.862-.045.907-.726.907H71.394c-.748,0-.794-.045-.794-.862,0-.839.023-.884.816-.884,3.606.023,7.189.023,10.749.023Z" transform="translate(-54.6 -54.589)"/><path class="a" d="M82.368,86.245H93.117c.7,0,.771.068.771.816,0,.839-.045.907-.726.907h-21.7c-.522,0-.726-.2-.68-.7v-.34c-.045-.522.181-.726.7-.726,2.7.023,5.375,0,8.073,0C80.463,86.245,81.415,86.245,82.368,86.245Z" transform="translate(-54.733 -66.652)"/><path class="a" d="M82.286,103.924H71.537c-.249,0-.726-.136-.748-.272a3.578,3.578,0,0,1,.068-1.293c.023-.068.317-.159.476-.159H93.217c.454,0,.658.181.612.635v.34c0,.7-.068.771-.748.771H84.622C83.851,103.924,83.08,103.924,82.286,103.924Z" transform="translate(-54.72 -79.023)"/><path class="a" d="M82.318,119.546c-3.583,0-7.166,0-10.749-.023-.249,0-.68-.136-.68-.272a3.553,3.553,0,0,1,.068-1.293c.023-.091.431-.159.658-.159h21.5c.794,0,.839.045.839.794,0,.907-.023.93-.816.93C89.507,119.546,85.9,119.546,82.318,119.546Z" transform="translate(-54.797 -91.085)"/><path class="a" d="M82.243,135.324H71.448c-.7,0-.748-.068-.748-.816,0-.862.023-.907.726-.907H93.083c.7,0,.748.045.726,1.021,0,.635-.091.7-.771.7Z" transform="translate(-54.677 -103.302)"/><path class="a" d="M82.213,39.3c3.56,0,7.121,0,10.681.023.249,0,.726.136.748.272a3.578,3.578,0,0,1-.068,1.293c-.023.091-.431.159-.658.159H71.191c-.454,0-.658-.181-.612-.635a2.189,2.189,0,0,0,0-.386c-.045-.522.181-.726.7-.726,2.517.023,5.057,0,7.574,0Z" transform="translate(-54.579 -30.388)"/></g></svg>